<?xml version="1.0" standalone="no"?>
<!DOCTYPE svg PUBLIC "-//W3C//DTD SVG 1.1//EN" "http://www.w3.org/Graphics/SVG/1.1/DTD/svg11.dtd" >
<svg xmlns="http://www.w3.org/2000/svg">
<metadata></metadata>
<defs>
<font id="port_lligat_slabregular" horiz-adv-x="1230" >
<font-face units-per-em="2048" ascent="1638" descent="-410" />
<missing-glyph horiz-adv-x="471" />
<glyph horiz-adv-x="2048" />
<glyph horiz-adv-x="2048" />
<glyph unicode="&#xd;" horiz-adv-x="681" />
<glyph unicode=" "  horiz-adv-x="471" />
<glyph unicode="&#x09;" horiz-adv-x="471" />
<glyph unicode="&#xa0;" horiz-adv-x="471" />
<glyph unicode="!" horiz-adv-x="552" d="M184 88q0 147 150 148q117 0 117 -123q0 -61 -37 -102.5t-113 -41.5q-117 0 -117 119zM195 1358q61 23 118.5 22.5t106.5 -12.5q-41 -387 -41 -866q0 -68 4 -133q-39 -12 -69.5 -12.5t-69.5 12.5q4 217 4 399q0 377 -53 590z" />
<glyph unicode="&#x22;" horiz-adv-x="718" d="M123 1386q47 10 107.5 10.5t78.5 -5.5q-23 -248 -22 -476q-37 -12 -73 -12t-60 6q0 268 -31 477zM410 1386q47 10 107.5 10.5t78.5 -5.5q-23 -248 -23 -476q-37 -12 -72.5 -12t-60.5 6q1 268 -30 477z" />
<glyph unicode="#" horiz-adv-x="1562" d="M102.5 367q-0.5 49 22.5 100q102 -10 256 -14q49 246 78 403q-174 -6 -240 -18q-10 31 -10 80t22 100q104 -10 254 -14q33 199 62 403q16 2 69.5 2t112.5 -37q-47 -174 -92 -373h278q82 0 144 2q35 207 61 406q16 2 69.5 2t113.5 -37q-35 -125 -91 -364q199 12 238 20 q10 -31 10 -80t-22 -100q-141 10 -258 12q-47 -231 -78 -403q203 12 241 20q10 -31 10.5 -80t-22.5 -100q-137 10 -254 12q-18 -113 -59 -399q-37 -4 -45 -4q-80 0 -139 39q49 184 90 368q-86 2 -191.5 2t-228.5 -4q-18 -113 -60 -401q-37 -4 -45 -4q-80 0 -139 39 q37 139 88 360q-168 -6 -235 -18q-10 31 -10.5 80zM526 449h283q84 0 145 2q45 211 80 413q-88 2 -194.5 2t-233.5 -4q-41 -193 -80 -413z" />
<glyph unicode="$" horiz-adv-x="1126" d="M137 280.5q0 118.5 107 118.5q63 0 98 -38.5t35 -95t-19 -91.5q90 -74 208 -74t177.5 54.5t59.5 148.5t-65.5 161.5t-159 113t-185.5 95.5t-157.5 134t-65.5 211t83 213t230 104q-4 117 -8 172q45 27 127 27q20 0 60 -6q-8 -70 -21 -193q127 -20 216 -95t89 -196.5 t-106 -121.5q-63 0 -98 38.5t-35 100t24 94.5q-72 66 -176 66t-156.5 -53.5t-52.5 -133.5t47 -136t117 -92t151.5 -82t151.5 -91t117 -122t47 -175q0 -158 -105.5 -259.5t-275.5 -107.5q0 -94 10 -131q-55 -27 -105 -26.5t-81 6.5q12 104 16 168q-129 27 -214 101.5t-85 193 z" />
<glyph unicode="%" horiz-adv-x="1820" d="M102 923.5q0 413.5 301.5 413.5t301.5 -413.5t-301.5 -413.5t-301.5 413.5zM246 923.5q0 -305.5 158.5 -305.5t158.5 305.5t-158.5 305.5t-158.5 -305.5zM569 -55q254 598 521 1460q33 4 53 4q57 0 108 -37q-248 -571 -522 -1462q-33 -4 -43 -4q-70 0 -117 39z M1116 395.5q0 413.5 301 413.5t301 -413.5t-301 -413.5t-301 413.5zM1260 395q0 -305 158.5 -305t158.5 305t-158.5 305t-158.5 -305z" />
<glyph unicode="&#x26;" horiz-adv-x="1216" d="M96 319q0 209 209 373q-115 154 -115 334q0 143 97.5 229t244 86t225.5 -76.5t79 -188t-67 -195.5t-226 -191q43 -53 295 -307q41 92 55 192l-90 7q-4 29 -4 57.5t6 56.5q47 -2 178 -2t182 2q6 -31 6 -62.5t-4 -51.5l-112 -7q-37 -174 -113 -299q113 -125 221 -266 q-70 -35 -141.5 -35t-85.5 2q-45 59 -75 99.5t-38 50.5q-170 -158 -387 -158q-152 0 -246 97.5t-94 252.5zM264 364.5q0 -110.5 60.5 -179t156.5 -68.5q129 0 252 116q-63 76 -336 351q-133 -109 -133 -219.5zM352 1051q0 -111 105 -256q119 76 168 133t49 126.5t-47 121 t-118 51.5t-114 -49t-43 -127z" />
<glyph unicode="'" horiz-adv-x="432" d="M123 1386q47 10 107.5 10.5t78.5 -5.5q-23 -248 -22 -476q-37 -12 -73 -12t-60 6q0 268 -31 477z" />
<glyph unicode="(" horiz-adv-x="632" d="M133 674.5q0 455.5 248 824.5q14 2 57 2t133 -28q-270 -359 -270 -799.5t270 -796.5q-90 -29 -133 -29t-57 2q-248 369 -248 824.5z" />
<glyph unicode=")" horiz-adv-x="632" d="M61 -123q270 356 270 797t-270 799q90 29 133.5 28.5t57.5 -2.5q248 -369 248 -824.5t-248 -824.5q-14 -2 -57 -2t-134 29z" />
<glyph unicode="*" horiz-adv-x="815" d="M78 1075q2 53 21.5 100.5t25.5 55.5q111 -57 225 -96q-1 98 -26 237q43 10 93 10t68 -10q-14 -113 -18 -235q113 41 219 94q8 -14 26.5 -58.5t20.5 -97.5q-119 -14 -239 -53q80 -104 163 -182q-88 -88 -131 -97q-74 141 -125 209q-57 -80 -118 -204q-57 25 -92 50t-41 40 q94 98 157 186q-106 35 -229 51z" />
<glyph unicode="+" d="M178 657.5q0 53.5 15 98.5q135 -18 356 -19q-5 201 -19 357q45 14 98.5 14t82.5 -6q-10 -35 -19.5 -165t-9.5 -200q70 0 200 9.5t165 19.5q6 -29 6 -82t-15 -98q-156 14 -356 18q0 -221 18 -356q-45 -14 -98 -14.5t-82 6.5q23 90 29 364q-274 -6 -365 -29q-6 29 -6 82.5z " />
<glyph unicode="," horiz-adv-x="534" d="M143.5 -261q-0.5 19 6.5 50q137 0 137 141q0 51 -54 58q-78 6 -77 100q0 72 33.5 110t121.5 38q121 0 121 -164t-65.5 -273.5t-212.5 -109.5q-10 31 -10.5 50z" />
<glyph unicode="-" horiz-adv-x="724" d="M123 465q0 35 12 84q387 27 455 43q12 -29 12 -63.5t-12 -84.5q-387 -27 -455 -43q-12 29 -12 64z" />
<glyph unicode="." horiz-adv-x="552" d="M184 88q0 147 150 148q117 0 117 -123q0 -61 -37 -102.5t-113 -41.5q-117 0 -117 119z" />
<glyph unicode="/" horiz-adv-x="1159" d="M197 -55q307 618 608 1460q37 4 83 4t105 -37q-303 -598 -610 -1462q-37 -4 -51 -4q-80 0 -135 39z" />
<glyph unicode="0" horiz-adv-x="1202" d="M123 655q0 686 478 686t478 -686t-478 -686t-478 686zM297 655q0 -553 304 -553t304 553t-304 553t-304 -553z" />
<glyph unicode="1" horiz-adv-x="768" d="M0 1106q131 53 424 221q18 2 45 2t49.5 -2t38.5 -2q-29 -221 -29 -611t17 -585l198 -16q4 -33 4.5 -56.5t-6.5 -58.5q-121 2 -288.5 2t-286.5 -2q-6 31 -6 54.5t4 60.5l194 16q16 219 16.5 543.5t-12.5 460.5q-229 -152 -268 -191q-80 88 -94 164z" />
<glyph unicode="2" horiz-adv-x="1101" d="M92 49q92 166 324 404q86 88 166 178q180 197 180 346q0 90 -55.5 167t-182.5 77t-205 -84q25 -31 25 -85.5t-29.5 -92t-91.5 -37.5q-96 0 -96 110q0 41 6 60q31 114 132.5 181.5t270.5 67.5t287.5 -93t118.5 -265q0 -100 -68.5 -218t-154.5 -208q-299 -313 -373 -416 q68 -2 197 -2t305 15l6 151q35 6 62.5 6t52.5 -2q6 -168 18 -311l-10 -10q-158 18 -341 18t-338 -10t-198 -19q-8 25 -8 72z" />
<glyph unicode="3" horiz-adv-x="1083" d="M82 266q0 123 106 123q68 0 101 -42t33 -100.5t-25 -92.5q63 -53 200.5 -53.5t221.5 68.5t84 172t-44 171t-124 94q-113 -8 -171 -8t-106 6q-10 37 -10 72t21 72q47 -14 154.5 -13.5t174 68t66.5 173t-71.5 175.5t-185.5 70t-179 -62q29 -35 28.5 -97.5t-35 -101 t-98.5 -38.5q-106 0 -106 122q0 49 12 80q84 217 381 217q197 0 310.5 -96t113.5 -262q0 -227 -184 -303q231 -88 231 -326q0 -186 -126.5 -285.5t-362.5 -99.5q-156 0 -283 77t-127 220z" />
<glyph unicode="4" horiz-adv-x="1046" d="M0 414q31 47 101.5 160.5t99 158.5t84 136.5t88.5 148.5q86 158 147 291q61 20 127 20t172 -8q-29 -227 -28.5 -491.5t2.5 -329.5q102 8 122 14q8 -33 8.5 -82t-16.5 -98q-74 8 -110 10q4 -135 12 -225l74 -6q4 -33 4 -56.5t-6 -58.5q-72 2 -166 2t-164 -2q-6 31 -6 54.5 t4 60.5l72 6q8 109 12 231q-63 2 -291.5 2t-335.5 -12q-6 18 -6 74zM225 487q76 -2 176.5 -2t235.5 4v140q0 403 -16 557q-150 -210 -396 -699z" />
<glyph unicode="5" horiz-adv-x="1087" d="M109 266q0 123 106 123q68 0 100.5 -42t32.5 -100.5t-24 -92.5q63 -53 195 -53.5t210 81.5t78 198t-68.5 208t-231.5 92t-253 -62q-57 0 -90 13q27 76 41 265t14 292.5t-2 134.5q127 -12 353.5 -12t342.5 16l11 -10q-14 -158 -19 -291q-25 -2 -53.5 -2t-60.5 6l-7 139 q-123 6 -206.5 5.5t-192.5 -0.5q-33 -207 -37 -383q102 18 197.5 18t190.5 -38t149 -101q100 -123 100 -297t-120 -289t-363 -115q-147 0 -270 77t-123 220z" />
<glyph unicode="6" horiz-adv-x="1124" d="M133 612q0 381 121 564q47 70 134 117.5t221 47.5t251 -77.5t117 -209.5t-107 -132q-67 0 -100 42t-33 102t29 95q-63 59 -184 59.5t-200 -147t-79 -403.5q111 145 326 145q162 0 277.5 -110.5t115.5 -300t-128 -312.5t-321 -123q-246 0 -343 157t-97 486zM311 387 q0 -141 72 -213t183.5 -72t196.5 74t85 218.5t-69.5 220t-183.5 75.5t-199 -81t-85 -222z" />
<glyph unicode="7" horiz-adv-x="913" d="M31 1317l10 10q74 -18 412 -18h59q76 0 201 10t161 18q8 -37 9 -71q-164 -301 -304.5 -663.5t-170.5 -598.5q-59 -20 -109.5 -20t-99.5 8q121 402 424 1182q-51 2 -166 2t-287 -15l-6 -131q-33 -6 -61.5 -6t-53.5 2q-4 133 -18 291z" />
<glyph unicode="8" horiz-adv-x="1157" d="M123 321.5q0 163.5 260 360.5q-223 129 -223 324q0 145 103.5 240t318.5 95q420 0 419 -344q0 -170 -206 -342q240 -127 239 -327q0 -172 -137 -265.5t-319 -93.5q-225 0 -353 105q-102 84 -102 247.5zM303 317q1 -196 275 -196q131 0 203.5 67.5t72.5 145.5q0 63 -33 97 t-51 50.5t-61 38.5l-66 33q-20 12 -74.5 36.5t-74.5 35.5q-190 -156 -191 -308zM336 1024q0 -141 184 -238q92 -49 154 -73q84 55 120.5 135t36.5 149q0 223 -247 224q-100 0 -174 -51.5t-74 -145.5z" />
<glyph unicode="9" horiz-adv-x="1124" d="M102 906.5q0 189.5 128 312t321 122.5q246 0 343 -156.5t97 -486.5q0 -389 -123 -563q-49 -70 -137 -118t-221 -48t-231.5 59.5t-139.5 157.5q-12 27 -12 80q0 123 106 123q68 0 101 -42t33 -102.5t-27 -92.5q66 -59 199 -59.5t207.5 143t74.5 405.5q-111 -145 -325 -145 q-162 0 -278 110.5t-116 300zM276 911.5q0 -143.5 73 -217t183.5 -73.5t195.5 75.5t85 222t-69.5 224.5t-183.5 78t-199 -83t-85 -226.5z" />
<glyph unicode=":" horiz-adv-x="540" d="M178 88q0 147 150 148q116 0 116 -123q0 -61 -36.5 -102.5t-112.5 -41.5q-117 0 -117 119zM178 831q0 147 150 148q116 0 116 -123q0 -61 -36.5 -102t-112.5 -41q-117 0 -117 118z" />
<glyph unicode=";" horiz-adv-x="555" d="M166 -261q0 19 6 50q137 0 137 141q0 51 -53 58q-78 6 -78 100q0 72 34 110t122 38q121 0 121 -164t-66 -273.5t-213 -109.5q-10 31 -10 50zM178 831q0 147 150 148q116 0 116 -123q0 -61 -36.5 -102t-112.5 -41q-117 0 -117 118z" />
<glyph unicode="&#x3c;" d="M137.5 669q-0.5 52 14.5 83q254 96 602 309q119 72 147 98q18 -23 44 -73t34 -91q-156 -61 -384 -180t-276 -145q96 -53 291 -154.5t369 -171.5q-8 -41 -33.5 -91t-44.5 -73q-29 27 -147 99q-342 209 -602 309q-14 29 -14.5 81z" />
<glyph unicode="=" d="M178 453q0 53 15 98q141 -18 342 -19q410 0 512 29q6 -27 5.5 -81t-14.5 -99q-188 18 -365 18t-314.5 -9t-174.5 -19q-6 29 -6 82zM178 861q0 54 15 100q141 -18 342 -19q410 0 512 29q6 -27 5.5 -81t-14.5 -99q-188 18 -365 18t-314.5 -9t-174.5 -20q-6 27 -6 81z" />
<glyph unicode="&#x3e;" d="M137 344q174 70 368.5 171t291.5 155q-94 53 -226 118q-260 137 -434 207q8 41 34 91.5t44 72.5q29 -27 145 -98q345 -209 605 -309q14 -31 14 -83.5t-14 -80.5q-260 -100 -605 -309q-117 -72 -145 -99q-18 23 -44 73t-34 91z" />
<glyph unicode="?" horiz-adv-x="940" d="M164 1135.5q0 115.5 98 179t226 63.5t234.5 -77.5t106.5 -213.5q0 -129 -118 -233q-49 -43 -101 -84q-119 -94 -118.5 -185t63.5 -161q-51 -68 -125 -76q-78 143 -78 244.5t111 218.5q16 18 64 66.5t69 72.5q63 76 63 145.5t-52 119t-125.5 49.5t-119.5 -39 q18 -31 18.5 -80t-30.5 -87t-90 -38q-96 0 -96 115.5zM344 88q0 147 150 148q116 0 116 -123q0 -61 -36.5 -102.5t-112.5 -41.5q-117 0 -117 119z" />
<glyph unicode="@" horiz-adv-x="1757" d="M123 348q0 457 222 704.5t632 247.5q319 0 488 -164.5t169 -476.5q0 -242 -143 -420t-340 -178q-92 0 -121 138q-154 -137 -297 -138q-106 0 -162.5 85t-56.5 245q0 260 108.5 419t288 159t349.5 -47q-88 -373 -89 -631q0 -104 60 -105q90 0 167 147.5t77 319.5 q0 268 -124 396.5t-386 128.5q-328 0 -501 -212t-173 -612q0 -504 422 -504q162 0 395 80q8 -16 8 -65t-16 -94q-147 -51 -365 -52q-303 0 -457.5 159t-154.5 470zM672 405.5q0 -202.5 131 -202.5q49 0 111.5 30.5t111.5 79.5q8 61 59 510q-86 43 -186 43t-163.5 -129 t-63.5 -331.5z" />
<glyph unicode="A" horiz-adv-x="1148" d="M-2 56.5q0 27.5 4 56.5l72 6q246 674 323 1067l-82 6q-6 25 -6 63.5t2 51.5q176 23 265 23h4q88 0 149 -21q49 -385 342 -1190l76 -6q4 -45 4 -62.5t-6 -52.5q-57 2 -178 2t-168 -2q-6 31 -6 58.5t4 56.5l71 6q-10 49 -32.5 142t-24.5 104q-117 6 -253 6t-255 -9 l-57 -243l78 -6q4 -45 4 -62.5t-6 -52.5q-49 2 -161 2t-157 -2q-6 31 -6 58.5zM340 506q70 -2 209 -2t225 6q-96 365 -203 674h-12q-121 -293 -219 -678z" />
<glyph unicode="B" horiz-adv-x="1177" d="M133 53q0 37 6 66l82 6q19 209 19 554v16q0 333 -21 491l-80 6q-6 25 -6 63.5t2 51.5q131 2 233.5 18t217.5 16q207 0 314.5 -95t107.5 -287.5t-131 -290.5q219 -88 219 -314q0 -190 -119 -287.5t-350 -97.5q-129 0 -240 17q-195 14 -252 18q-2 12 -2 49zM394 692v-18 q0 -313 16 -516q121 -47 219 -47q289 0 289 243q0 205 -191 250q-61 -10 -119.5 -10t-138.5 31q0 94 43 137q45 -31 132 -31t136 58.5t49 176t-65.5 188.5t-185.5 71q-76 0 -168 -37q-16 -170 -16 -496z" />
<glyph unicode="C" horiz-adv-x="1097" d="M113 651q0 690 508 690q154 0 273.5 -80.5t119.5 -209.5t-107 -129q-63 0 -98 38.5t-35 101t27 97.5q-66 61 -180 62q-168 0 -254 -140.5t-86 -412.5q0 -547 340 -547q82 0 166.5 40t144.5 105q63 -51 82 -162q-182 -135 -393 -135q-268 0 -388 166t-120 516z" />
<glyph unicode="D" horiz-adv-x="1243" d="M133 53q0 37 6 66l82 6q19 209 19 554v16q0 333 -21 491l-80 6q-6 25 -6 63.5t2 51.5q135 2 243.5 18t233.5 16q260 0 399.5 -175t139.5 -500q0 -697 -539 -697q-129 0 -240.5 14.5t-236.5 20.5q-2 12 -2 49zM394 676v-19q0 -318 16 -499q96 -43 202 -43q176 0 269.5 141 t93.5 408.5t-94.5 412t-270.5 144.5q-102 0 -202 -39q-14 -174 -14 -506z" />
<glyph unicode="E" horiz-adv-x="1062" d="M133 1251.5q0 28.5 6 59.5q51 -2 375 -2t416 18l10 -10q-16 -180 -18 -291q-20 -2 -51 -2t-64 6l-6 139q-104 7 -217 7h-15q-103 0 -172 -7q-12 -129 -12 -421q33 -2 133 -2q5 0 11 -1q96 0 221 9l6 77q45 4 61.5 4.5t52.5 -6.5q-2 -63 -2 -163.5t2 -130.5 q-31 -6 -59.5 -6.5t-54.5 3.5l-6 72q-111 4 -182.5 4t-182.5 -4q0 -268 14 -448q72 -6 204 -6t208 10l6 139q35 6 64.5 6t50.5 -2q2 -160 18 -303l-10 -10q-100 10 -439 10t-358 -2q-6 31 -6 58.5t4 56.5l72 6q18 317 18 574t-24 497l-70 6q-4 27 -4 55.5z" />
<glyph unicode="F" horiz-adv-x="980" d="M133 1251.5q0 28.5 6 59.5q51 -2 364.5 -2t405.5 18l11 -10q-16 -180 -19 -291q-20 -2 -51 -2t-64 6l-6 139q-104 7 -204 7h-13q-92 0 -166 -7q-12 -135 -12 -444h100q113 0 244 8l6 78q45 4 61.5 4t53.5 -6q-2 -61 -2 -155.5t2 -139.5q-31 -6 -59.5 -6t-55.5 4l-6 72 q-111 4 -170 4t-174 -4q4 -311 18 -465l113 -8l4 -50q0 -33 -6 -63q-53 2 -191.5 2t-181.5 -2q-6 31 -6 58.5t4 56.5l76 6q16 201 16 516t-24 555l-70 6q-4 27 -4 55.5z" />
<glyph unicode="G" horiz-adv-x="1167" d="M113 651q0 690 514 690q143 0 243.5 -56t143.5 -161q12 -37 12 -80q0 -122 -104 -122h-2q-63 0 -98.5 38.5t-35.5 100t25 96.5q-66 63 -184 64q-170 0 -258 -140.5t-88 -412.5q0 -547 340 -547q166 0 280 94q-2 164 -14 281q-246 -8 -330 -23q-10 55 -10 106.5t2 69.5 q104 -16 262 -16t244 6q-21 -218 -21 -535q-182 -135 -430 -135t-369.5 168t-121.5 514z" />
<glyph unicode="H" horiz-adv-x="1325" d="M133 52.5q0 23.5 4 60.5l72 6q16 221 16 564t-18 513l-70 6q-4 33 -4 56.5t6 58.5q72 -2 166 -2t164 2q6 -31 6 -54.5t-4 -60.5l-78 -6q-14 -180 -14 -461q111 -12 266.5 -12t296.5 16q-4 326 -18 457l-70 6q-4 33 -4 56.5t6 58.5q72 -2 166 -2t164 2q6 -31 6 -54.5 t-4 -60.5l-78 -6q-14 -166 -14 -514t18 -563l74 -6q4 -33 4 -56.5t-6 -58.5q-72 2 -166 2t-164 -2q-6 31 -6 54.5t4 60.5l72 6q12 178 16 456q-131 15 -297 15h-11q-159 0 -255 -15q4 -291 18 -456l74 -6q4 -33 4 -56.5t-6 -58.5q-72 2 -166 2t-164 -2q-6 31 -6 54.5z" />
<glyph unicode="I" horiz-adv-x="649" d="M154 52.5q0 23.5 4 60.5l71 6q17 221 17 564v17q0 330 -19 496l-69 6q-4 33 -4 56.5t6 58.5q72 -2 166 -2t163 2q6 -31 6.5 -54.5t-3.5 -60.5l-78 -6q-14 -166 -14 -514v-18q0 -336 18 -545l74 -6q4 -33 4 -56.5t-7 -58.5q-72 2 -166 2t-163 -2q-6 31 -6 54.5z" />
<glyph unicode="J" horiz-adv-x="575" d="M-240 -274q8 49 29 90t37 57l16 14q78 -104 190.5 -104t149.5 97t37 368v346q0 422 -18 602l-76 6q-4 45 -4 61.5t6 53.5q55 -2 167 -2t163 2q6 -31 6 -46.5t-4 -68.5l-72 -6q-14 -195 -14 -674v-313q0 -330 -70 -454t-256 -124q-72 0 -151.5 27t-135.5 68z" />
<glyph unicode="K" horiz-adv-x="1089" d="M133 56.5q0 27.5 4 56.5l72 6q16 225 16 568t-18 509l-70 6q-4 45 -4 61.5t6 53.5q55 -2 167 -2t163 2q6 -31 6 -46.5t-4 -68.5l-78 -6q-14 -180 -14 -543q326 416 403 541l-75 6q-4 45 -4.5 61.5t6.5 53.5q49 -2 170.5 -2t167.5 2q6 -31 6 -46.5t-4 -68.5l-76 -6 l-400 -473q207 -315 274.5 -411.5t139.5 -180.5l96 -6q4 -33 4 -61.5t-6 -57.5l-243 -10q-14 68 -256 424q-102 152 -113 170l-88 -113q4 -209 16 -356l74 -6q4 -45 4 -62.5t-6 -52.5q-57 2 -168 2t-162 -2q-6 31 -6 58.5z" />
<glyph unicode="L" horiz-adv-x="907" d="M133 52.5q0 23.5 4 60.5l72 6q18 283 18 596t-18 481l-70 6q-4 33 -4 56.5t6 58.5q72 -2 166 -2t164 2q6 -31 6 -54.5t-4 -60.5l-78 -6q-14 -193 -14 -529.5t14 -510.5q63 -6 185 -6t186 10l6 139q35 6 62.5 6t52.5 -2q6 -156 18 -303l-10 -10q-96 10 -391 10t-365 -2 q-6 31 -6 54.5z" />
<glyph unicode="M" horiz-adv-x="1617" d="M113 52.5q0 23.5 4 60.5l71 6q43 373 43 882q0 98 -6 185l-75 6q-6 29 -6.5 63.5t1.5 51.5q168 4 254 10q35 -188 414 -887q313 612 367 887q76 -6 284 -10q2 -17 2 -51.5t-6 -63.5l-78 -6q-2 -57 -2 -170q0 -502 45 -897l76 -6q4 -33 4 -56.5t-6 -58.5q-72 2 -166 2 t-164 -2q-6 31 -6 54.5t4 60.5l68 6q4 147 4 336.5t-18 527.5q-20 -43 -103 -209q-182 -362 -250 -534q-41 -16 -87 -16.5t-62 1.5q-72 172 -204 417t-157 290q-16 -291 -16 -492.5t4 -320.5l76 -6q4 -33 4 -56.5t-6 -58.5q-66 2 -152 2t-149 -2q-6 31 -6 54.5z" />
<glyph unicode="N" horiz-adv-x="1331" d="M123 1255.5q0 34.5 2 51.5q174 4 258 10q39 -147 221 -442t385 -578q6 172 6 450.5t-18 448.5l-76 6q-4 33 -4 56.5t6 58.5q66 -2 151 -2t148 2q6 -31 6 -54.5t-4 -60.5l-71 -6q-15 -166 -15 -624v-12q0 -446 35 -556q-61 -20 -89 -20t-97 4q-14 63 -121 230 t-265.5 398.5t-228.5 346.5q-2 -88 -2 -358.5t19 -485.5l75 -6q4 -33 5 -56.5t-7 -58.5q-66 2 -151.5 2t-149.5 -2q-6 31 -6 54.5t4 60.5l72 6q16 221 16 560t-18 507l-80 6q-6 29 -6 63.5z" />
<glyph unicode="O" d="M113 670q0 672 502 672h1q502 0 502 -672q0 -123 -9 -215.5t-41 -188.5t-85 -157.5t-146.5 -100.5t-221.5 -39t-221 39t-146 100.5t-85 157.5t-41 188.5t-9 215.5zM274 668q0 -396 168 -502q70 -45 173.5 -45t174 45t105.5 129q61 145 61 373q0 553 -341 553t-341 -553z " />
<glyph unicode="P" horiz-adv-x="1087" d="M133 1255.5q0 34.5 2 51.5q86 4 236 18q104 16 229 16q242 0 344.5 -109.5t102.5 -307t-103.5 -320.5t-314.5 -123q-82 0 -162 31q0 55 14.5 102.5t28.5 63.5q59 -60 142 -60h2q82 0 132 52q82 84 82 250q0 305 -270 305q-86 0 -192 -45q-14 -162 -14 -504v-17 q0 -330 18 -540l116 -8q4 -33 4 -59.5t-6 -53.5q-74 2 -191.5 2t-180.5 -2q-6 31 -6.5 54.5t4.5 60.5l71 6q17 219 17 560v16q0 329 -21 491l-78 6q-6 29 -6 63.5z" />
<glyph unicode="Q" d="M113 670q0 672 502 672h1q502 -1 502 -672q0 -141 -14 -246t-55 -207q-80 -203 -330 -240q78 -182 248 -182q72 0 147.5 42t128.5 114q55 -55 72 -174q-154 -125 -357 -125q-268 0 -405 319q-311 23 -397 312q-43 147 -43 387zM274 668q0 -396 168 -502q70 -45 173.5 -45 t174 45t105.5 129q61 145 61 373q0 553 -341 553t-341 -553z" />
<glyph unicode="R" horiz-adv-x="1155" d="M133 1255.5q0 38.5 2 51.5q137 4 241.5 19t223.5 15q446 0 447 -401q0 -162 -80 -266.5t-224 -130.5q203 -322 281 -414l96 -6q4 -33 4 -60.5t-6 -58.5q-186 -6 -260 -10l-8 22q-35 86 -85 179.5t-210 343.5q-43 2 -88 22q0 41 13.5 89.5t29.5 64.5q58 -55 150 -56h2 q91 0 148 77q58 77 58 204q0 285 -270 285q-92 0 -192 -41q-14 -178 -14 -506v-17q0 -317 18 -542l75 -6q4 -45 4.5 -62.5t-6.5 -52.5q-59 2 -173.5 2t-157.5 -2q-6 31 -6.5 58.5t4.5 56.5l71 6q17 225 17 565v16q0 328 -21 486l-78 6q-6 25 -6 63.5z" />
<glyph unicode="S" horiz-adv-x="983" d="M66 276q0 123 106 123q64 0 98.5 -38.5t34.5 -95t-18 -91.5q90 -74 207.5 -74t177 54.5t59.5 148.5t-65.5 161.5t-158.5 113t-185.5 95.5t-158 134t-65.5 199q0 158 104.5 246.5t268.5 88.5t283.5 -77.5t119.5 -209.5t-106 -132q-63 0 -98 38.5t-35 100t24 94.5 q-72 66 -176 66t-156.5 -53.5t-52.5 -133.5t47.5 -136t117 -92t151.5 -82t151.5 -91t116.5 -122t47 -175q0 -162 -111.5 -264.5t-285.5 -102.5t-308 81t-134 226z" />
<glyph unicode="T" horiz-adv-x="985" d="M31 1317l10 10q152 -18 485.5 -18t417.5 18l10 -10q-14 -158 -18 -291q-25 -2 -52.5 -2t-62.5 6l-6 137q-85 5 -237 9q-14 -160 -14 -514v-20q0 -339 16 -523l118 -13q4 -33 4 -52t-6 -56q-74 2 -212 2t-201 -2q-6 31 -6.5 51.5t4.5 56.5l112 13q17 219 17 556v17 q0 324 -19 484q-80 -2 -221 -15l-6 -151q-33 -6 -61.5 -6t-53.5 2q-6 168 -18 311z" />
<glyph unicode="U" horiz-adv-x="1318" d="M113 1258.5q0 23.5 6 58.5q72 -2 166 -2t164 2q6 -31 6 -54.5t-4 -60.5l-70 -6q-16 -201 -16 -631q0 -229 63.5 -336.5t251.5 -107.5t248.5 107.5t60.5 336.5q0 442 -20 631l-72 6q-4 33 -4 56.5t6 58.5q66 -2 152 -2t149 2q6 -31 6 -54.5t-4 -60.5l-67 -6 q-16 -201 -16.5 -476.5t-8.5 -358t-35.5 -162.5t-77.5 -127q-106 -102 -331 -103q-289 0 -379 162q-45 86 -60.5 184.5t-15.5 395.5t-21 485l-73 6q-4 33 -4 56.5z" />
<glyph unicode="V" horiz-adv-x="1165" d="M2 1258.5q0 23.5 6 58.5q72 -2 179.5 -2t185.5 2q6 -31 6 -54.5t-4 -60.5l-72 -6q43 -233 125 -523t166 -495h12q74 180 159 493.5t120 524.5l-76 6q-4 16 -4 48t6 67q74 -2 178.5 -2t167.5 2q6 -31 6 -52.5t-4 -62.5l-72 -6q-92 -246 -222 -631t-175 -565 q-74 -18 -134 -18t-79 2q-211 756 -395 1212l-76 6q-4 33 -4 56.5z" />
<glyph unicode="W" horiz-adv-x="1667" d="M2 1258.5q0 23.5 6 58.5q72 -2 182.5 -2t180.5 2q6 -31 6 -61.5t-4 -53.5l-72 -6q96 -649 231 -1018h13q63 156 121.5 431.5t89.5 516.5q61 25 101 25t73 -4q92 -623 225 -969h12q70 195 131.5 493t85.5 525l-73 6q-4 16 -4 48t6 67q74 -2 178 -2t168 2q6 -31 6 -52.5 t-4 -62.5l-72 -6q-59 -186 -171.5 -586.5t-166.5 -609.5q-74 -18 -134 -18t-79 2q-29 98 -97.5 370.5t-100.5 397.5h-11q-137 -498 -200 -752q-74 -18 -134.5 -18t-78.5 2q-8 27 -134 519t-200 693l-76 6q-4 33 -4 56.5z" />
<glyph unicode="X" horiz-adv-x="1099" d="M31 50.5q0 21.5 4 62.5l69 6q221 322 353 559q-141 246 -320 518l-74 6q-4 33 -4 56.5t7 58.5q72 -2 183 -2t189 2q6 -31 6 -54.5t-4 -60.5l-73 -6q94 -184 204 -387q98 156 191 387l-76 6q-4 16 -4 48t6 67q74 -2 178.5 -2t167.5 2q6 -31 6 -52.5t-4 -62.5l-73 -6 q-186 -274 -320 -516q162 -285 346 -561l76 -6q4 -33 4 -56.5t-6 -58.5q-72 2 -183.5 2t-189.5 -2q-6 31 -6 54.5t4 60.5l72 6q-109 213 -228 424q-141 -233 -223 -424l76 -6q4 -16 4 -48t-6 -67q-74 2 -178.5 2t-167.5 -2q-6 31 -6 52.5z" />
<glyph unicode="Y" horiz-adv-x="1013" d="M2 1258.5q0 23.5 6 58.5q72 -2 177.5 -2t174.5 2q6 -31 6.5 -54.5t-4.5 -60.5l-73 -6q39 -145 129 -342t114 -254h9q55 106 116.5 277.5t90.5 318.5l-76 6q-4 33 -4 56.5t6 58.5q66 -2 163 -2t169 2q6 -35 6 -64.5t-4 -50.5l-72 -6q-281 -604 -332 -799q6 -156 17 -278 l73 -6q4 -33 4 -56.5t-6 -58.5q-72 2 -166 2t-164 -2q-6 31 -6 54.5t4 60.5l72 6q12 178 14 282q-53 176 -286 643q-66 127 -78 152l-76 6q-4 33 -4 56.5z" />
<glyph unicode="Z" horiz-adv-x="995" d="M61 66q88 139 328 551.5t328 556.5q-70 2 -193 2t-291 -15l-6 -151q-33 -6 -61.5 -6t-52.5 2q-6 168 -19 311l10 10q152 -18 444 -18t376 12q10 -20 10 -78q-88 -166 -327.5 -587.5t-282.5 -499.5q84 -6 193.5 -6t277.5 14l6 141q35 6 62.5 6t51.5 -2q6 -168 19 -311 l-10 -10q-145 18 -409.5 18t-438.5 -14q-12 31 -15 74z" />
<glyph unicode="[" horiz-adv-x="673" d="M154 -133q33 274 32.5 843.5t-32.5 772.5q98 -10 237 -10t234 24q8 -37 8 -82t-17 -98q-96 16 -258 16q-12 -129 -12 -662.5t12 -654.5q162 1 258 17q16 -53 16.5 -98.5t-7.5 -81.5q-94 25 -233.5 24.5t-237.5 -10.5z" />
<glyph unicode="\" horiz-adv-x="1159" d="M197 1372q59 37 113.5 37t72.5 -2q299 -834 610 -1462q-55 -39 -135 -39q-14 0 -51 4q-307 864 -610 1462z" />
<glyph unicode="]" horiz-adv-x="673" d="M41 -65q0 45 16 98q96 -16 258 -17q12 129 12.5 662.5t-12.5 654.5q-162 0 -258 -16q-16 53 -16 98t8 82q94 -25 233.5 -24.5t237.5 10.5q-33 -274 -33 -843.5t33 -772.5q-98 10 -237.5 10t-233.5 -24q-8 37 -8 82z" />
<glyph unicode="^" d="M164 674q41 61 137 254q121 225 168 346q25 12 85 12t87 -12q47 -121 168 -346q100 -203 137 -254q-14 -12 -57 -35t-74 -27q-57 139 -113 238q-119 223 -147 270q-156 -264 -260 -508q-31 4 -74 27t-57 35z" />
<glyph unicode="_" horiz-adv-x="1028" d="M41 -115q0 49 16 103q152 -18 359 -18.5t366.5 9t196.5 19.5q8 -37 8 -82t-16 -98q-201 18 -405 18t-341 -10t-176 -19q-8 29 -8 78z" />
<glyph unicode="`" horiz-adv-x="868" d="M225 1235q2 57 20.5 91t61.5 71q94 -80 195.5 -146.5t140.5 -93.5q-10 -43 -41 -76q-254 104 -377 154z" />
<glyph unicode="a" horiz-adv-x="968" d="M102 257q0 138 87 218t219.5 80t226.5 -49q2 23 2 74q0 152 -42 218t-128 66t-125 -33q16 -33 16 -82t-31.5 -84.5t-88.5 -35.5q-97 0 -97 115q0 114 86 174q86 62 242 61.5t241 -73t85 -199.5l-9 -295q0 -139 17 -273l76 -6q4 -33 4 -60.5t-6 -58.5q-59 -2 -232 -20 q-14 39 -22 96q-160 -121 -276 -121t-180.5 75t-64.5 213zM262 285q0 -168 146 -168q53 0 113.5 27.5t94.5 68.5q11 123 11 164q-84 72 -181 72q-184 0 -184 -164z" />
<glyph unicode="b" horiz-adv-x="985" d="M51 1327.5q0 38.5 2 50.5q182 8 266 19l9 -11q-29 -245 -31 -546q143 139 288.5 139t221.5 -119t76 -332q0 -289 -99.5 -424t-312.5 -135q-133 0 -354 54q33 201 33 651t-11 583l-82 7q-6 25 -6 63.5zM297 164q94 -47 199 -47q213 0 213 438q0 293 -174 293 q-125 0 -238 -133v-551z" />
<glyph unicode="c" horiz-adv-x="880" d="M92 479q0 252 98.5 376t278.5 124q141 0 229 -66.5t88 -175t-96 -108.5q-57 0 -89 35.5t-32 88t15 78.5q-45 35 -107 35q-217 0 -217 -385q0 -176 55.5 -270t156.5 -94t251 127q59 -61 76 -162q-172 -113 -350.5 -113t-267.5 129t-89 381z" />
<glyph unicode="d" horiz-adv-x="1021" d="M102 472q0 241 97.5 374t279.5 133q102 0 211 -49l2 129q0 123 -8 198l-82 7q-6 25 -6 63.5t2 50.5q182 8 266 19l8 -11q-31 -264 -31 -678q1 -7 1 -13q0 -423 18 -558l76 -4q4 -45 4 -66.5t-6 -52.5q-80 -4 -223 -20q-16 33 -25 104q-141 -129 -285.5 -129t-221.5 131 t-77 372zM276 451q0 -154 46.5 -239t128.5 -85q55 0 121.5 35t115.5 88q4 254 4 549q-131 59 -211 59q-205 0 -205 -407z" />
<glyph unicode="e" horiz-adv-x="923" d="M92 481q0 252 103.5 375t293.5 123q141 0 233.5 -86t93.5 -211v-11q0 -117 -21 -167q-154 -49 -349 -49q-100 0 -186 10q4 -348 232 -348q115 0 253 127q59 -61 76 -162q-168 -113 -356.5 -113t-280.5 130t-92 382zM262 584q92 -10 202 -10q3 0 6 -1q107 0 167 21 q8 51 8 76q0 90 -46 142t-124 52q-190 0 -213 -280z" />
<glyph unicode="f" horiz-adv-x="677" d="M70 901.5q0 32.5 4 44.5h119q-2 18 -3 82q0 354 285 354q94 0 169 -41t75 -129q0 -114 -94 -114h-2q-55 0 -87 32.5t-33 73.5t3 58q-18 8 -39 8q-127 0 -127 -254q0 -51 2 -68q154 2 256 13q12 -27 12 -60t-8 -76q-29 2 -250 9v-193l2 -156q0 -223 21 -366l74 -6 q4 -18 4 -49t-7 -66q-57 2 -167.5 2t-161.5 -2q-6 31 -6 58.5t4 56.5l69 6q21 198 21 307l-6 410q-90 0 -117 -2q-12 35 -12 67.5z" />
<glyph unicode="g" horiz-adv-x="954" d="M51 -217q0 90 96 186q-39 29 -38 80q0 109 104 266q-109 88 -109 316q1 348 347 348q25 0 36 -2q129 197 281 197q133 0 133 -130q0 -90 -89 -90t-103 93q-59 0 -111 -89q199 -66 199 -327q0 -160 -64 -266q-72 -119 -282 -119q-88 0 -144 20q-43 -76 -63 -166 q35 -6 73.5 -6t155.5 14.5t168 14.5q106 0 172 -53.5t66 -164t-72 -192.5q-125 -143 -389 -143q-178 0 -272.5 45t-94.5 168zM217 -186q0 -131 240 -131q102 0 183 45t81 135q0 100 -109 100q-53 0 -167.5 -13t-184.5 -13h-16q-27 -57 -27 -123zM270 628.5 q0 -241.5 180.5 -241.5t180.5 241.5t-180.5 241.5t-180.5 -241.5z" />
<glyph unicode="h" horiz-adv-x="1091" d="M106 1326v10q0 28 3 42q186 10 266 19l8 -11q-29 -244 -29 -548q61 61 147.5 101t164.5 40q241 0 241 -262l-2 -199q0 -217 25 -399l71 -6q5 -37 5 -60t-7 -55q-72 2 -169 2t-166 -2q-6 31 -6.5 54.5t4.5 60.5l71 6q17 221 17 393v6q0 168 -30 248q-30 82 -120 82 q-115 0 -246 -131v-193q0 -252 19 -405l76 -6q4 -33 4 -56.5t-7 -58.5q-72 2 -166 2t-163 -2q-6 31 -6 54.5t4 60.5l71 6q18 193 19 356v281q0 369 -10 501l-82 7q-7 26 -7 62z" />
<glyph unicode="i" horiz-adv-x="538" d="M106 906v9q0 25 3 39q119 4 253 19l11 -10q-19 -121 -19 -406q0 -7 1 -15q0 -274 18 -423l76 -6q4 -33 4 -56.5t-7 -58.5q-72 2 -166 2t-163 -2q-6 31 -6 63.5t4 51.5l71 6q18 201 18 367q0 5 1 10q0 162 -17 338l-75 6q-7 34 -7 66zM160 1233q0 129 131 129 q102 -1 102 -107q0 -127 -131 -127q-102 0 -102 105z" />
<glyph unicode="j" horiz-adv-x="520" d="M-123 -365q0 117 68 170q23 -33 65.5 -58.5t83.5 -25.5q115 0 115 287v475q0 170 -16 351l-76 6q-6 35 -6 66.5t2 47.5q119 4 254 19l10 -10q-19 -122 -19 -439l7 -551q0 -403 -277 -403q-119 0 -211 65zM164 1233q0 129 131 129q102 -1 102 -107q0 -127 -131 -127 q-102 0 -102 105z" />
<glyph unicode="k" horiz-adv-x="974" d="M92 1326.5q0 35.5 2 51.5q186 10 266 19l9 -11q-29 -244 -29 -524v-338q0 -252 18 -405l76 -6q4 -33 4 -56.5t-6 -58.5q-72 2 -166 2t-164 -2q-6 31 -6 54.5t4 60.5l72 6q18 192 18 356v281q0 369 -10 501l-82 7q-6 27 -6 62.5zM373 465l6 20q162 197 248 351 q16 40 24 120q51 -2 124 -2t130 2q6 -27 6 -58.5t-4 -55.5l-88 -6q-37 -45 -131 -151.5t-139 -160.5q199 -283 307 -405l88 -6q4 -25 4 -56.5t-6 -58.5q-74 2 -155.5 2t-135.5 -2q-8 86 -22 121q-72 141 -256 346z" />
<glyph unicode="l" horiz-adv-x="516" d="M92 1326.5q0 35.5 2 51.5q186 10 266 19l9 -11q-29 -244 -29 -524v-338q0 -252 18 -405l76 -6q4 -33 4 -56.5t-6 -58.5q-72 2 -166 2t-164 -2q-6 31 -6 54.5t4 60.5l72 6q18 192 18 356v281q0 369 -10 501l-82 7q-6 27 -6 62.5z" />
<glyph unicode="m" horiz-adv-x="1562" d="M106 908v10q0 26 3 36q104 2 253 19l11 -10q-6 -43 -13 -121q59 61 137 99t146 38q168 0 211 -158q59 70 142 114t157 44q115 0 169 -70.5t54 -222.5l-2 -168q0 -215 25 -399l74 -6q4 -18 4 -49t-7 -66q-57 2 -171.5 2t-163.5 -2q-6 31 -6.5 58.5t4.5 56.5l69 6 q16 241 16 411q0 3 1 5q0 166 -31 239q-31 74 -103 74q-102 0 -219 -135l-2 -195q0 -215 25 -399l72 -6q4 -33 4 -56.5t-7 -58.5q-57 2 -171.5 2t-163.5 -2q-6 31 -6.5 58.5t4.5 56.5l71 6q16 241 16 411q0 3 1 5q0 166 -31 239q-31 74 -103 74q-104 0 -219 -133 q-2 -53 -2 -249t19 -347l76 -6q4 -45 4 -62.5t-7 -52.5q-57 2 -167.5 2t-161.5 -2q-6 31 -6 58.5t4 56.5l71 6q18 205 18 376q0 5 1 10q0 166 -17 329l-75 6q-7 34 -7 68z" />
<glyph unicode="n" horiz-adv-x="1091" d="M106 908v10q0 26 3 36q104 2 253 19l11 -10q-4 -25 -13 -123q63 63 147.5 101t158.5 38q241 0 241 -262l-2 -199q0 -215 25 -399l71 -6q5 -51 5 -65q0 -17 -7 -50q-57 2 -171.5 2t-163.5 -2q-6 31 -6.5 58.5t4.5 56.5l71 6q17 248 17 415t-34 240q-34 74 -116 74 q-111 0 -244 -133q-2 -53 -2 -249t19 -347l76 -6q4 -45 4 -62.5t-7 -52.5q-57 2 -167.5 2t-161.5 -2q-6 31 -6 58.5t4 56.5l71 6q18 205 18 376q0 5 1 10q0 166 -17 329l-75 6q-7 34 -7 68z" />
<glyph unicode="o" horiz-adv-x="954" d="M92 485q0 494 385 494t385 -494q0 -227 -71 -360q-82 -156 -313.5 -156t-313.5 156q-72 133 -72 360zM260 490.5q0 -373.5 217 -373.5t217 373.5t-217 373.5t-217 -373.5z" />
<glyph unicode="p" horiz-adv-x="1011" d="M76 898q0 40 2 56q94 2 252 19l10 -10q-8 -59 -10 -117q141 133 291 133q288 0 288 -489q0 -191 -73 -345q-41 -82 -123 -129t-182.5 -47t-208.5 49q10 -256 18 -327l76 -6l4 -54q0 -41 -6 -61q-49 2 -169 2t-161 -2q-6 35 -6 61.5t4 53.5l76 6q16 223 16 597t-16 546 l-76 6q-6 18 -6 58zM319 164q119 -47 193 -47q223 0 223 397q0 242 -80 305q-37 29 -96 29t-124.5 -39t-110.5 -94q-4 -170 -5 -551z" />
<glyph unicode="q" horiz-adv-x="1019" d="M102 420q0 289 99.5 424t312.5 135q129 0 354 -53q-31 -260 -31 -635q0 -6 1 -12q0 -383 20 -588l76 -6q4 -37 4 -57.5t-6 -57.5q-47 2 -170 2t-164 -2q-6 33 -6 60.5t4 54.5l74 6q18 201 18 418q-145 -139 -290 -139q0 -1 -1 -1q-143 0 -219 119t-76 332zM276 410 q0 -293 175 -293q119 0 237 133v567q-90 47 -196.5 47t-161 -107t-54.5 -347z" />
<glyph unicode="r" horiz-adv-x="710" d="M66 907.5q0 34.5 2 46.5q104 2 254 19l10 -10q-2 -12 -13 -121q47 59 110 98t123 39t105 -43t45 -113q0 -114 -94 -114h-2q-55 0 -88 35.5t-33 95.5q-4 2 -14 2q-76 0 -156 -115q-2 -57 -2 -257t19 -351l76 -6q4 -45 4 -62.5t-6 -52.5q-57 2 -168 2t-162 -2 q-6 31 -6 58.5t4 56.5l71 6q19 205 19 376v10q0 166 -17 329l-75 6q-6 33 -6 67.5z" />
<glyph unicode="s" horiz-adv-x="825" d="M59 207v8q0 111 97 111q57 0 88.5 -36t31.5 -83t-10 -74q41 -27 130 -27t135.5 31t46.5 85t-50.5 97t-122 73t-143.5 63.5t-122 97t-50 152.5q0 127 89 200.5t232.5 73.5t228.5 -67.5t85 -175t-96 -107.5q-57 0 -89 35.5t-32 85t16 81.5q-49 39 -116.5 39t-111.5 -32.5 t-44 -96t50 -110.5t122 -77t143.5 -61.5t121.5 -90t50 -144.5q0 -133 -89 -211t-242.5 -78t-251 65.5t-97.5 172.5z" />
<glyph unicode="t" horiz-adv-x="628" d="M20 898v6q0 27 5 42h125l-11 152q51 16 107.5 16t93.5 -8l-18 -158q113 2 227 13q12 -27 12 -59t-8 -77q-76 4 -240 9q-4 -41 -4 -121v-416q0 -53 5 -87t26.5 -61.5t62.5 -27.5q90 0 172 63q43 -61 43 -166q-113 -49 -195.5 -49t-131.5 21.5t-76 51.5t-41 83 q-20 76 -20 207l4 456q0 31 -2 48q-86 0 -123 -2q-13 32 -13 64z" />
<glyph unicode="u" horiz-adv-x="1028" d="M72 907.5q0 34.5 2 46.5q104 2 254 19l10 -10q-18 -121 -19 -433v-96q0 -172 32 -244.5t108 -72.5q106 0 231 125q4 47 4 182v59q0 182 -16 351l-76 6q-6 35 -6 68.5t2 45.5q104 2 254 19l10 -10q-18 -121 -18 -433v-65q0 -168 18 -328l76 -4q4 -45 4 -66.5t-6 -52.5 q-80 -4 -223 -20q-16 37 -25 102q-154 -127 -283 -127t-183 71.5t-54 223.5l2 219q0 182 -16 351l-76 6q-6 33 -6 67.5z" />
<glyph unicode="v" horiz-adv-x="929" d="M-10 898.5q0 31.5 6 57.5q59 -2 177 -2t179 2q6 -27 6 -58.5t-4 -55.5l-84 -6q41 -264 189 -609h8q53 102 108.5 279.5t81.5 329.5l-86 6q-4 20 -4 54t6 60q61 -2 171 -2t169 2q7 -28 7 -58v-5q0 -27 -5 -51l-67 -6q-258 -600 -318 -836q-53 -14 -95 -14t-56 2 q-117 414 -318 848l-67 6q-4 25 -4 56.5z" />
<glyph unicode="w" horiz-adv-x="1320" d="M-10 898.5q0 31.5 6 57.5q59 -2 178 -2t180 2q6 -27 6 -58.5t-4 -55.5l-82 -6q29 -231 142 -609h8q45 102 92 292t59 321q61 14 105.5 14t81.5 -6q41 -336 117 -621h8q47 102 93 278.5t67 330.5l-84 6q-4 20 -4.5 54t6.5 60q61 -2 170.5 -2t169.5 2q6 -27 6 -57.5 t-4 -56.5l-70 -6q-238 -610 -295 -836q-53 -14 -95 -14t-56 2q-23 160 -136 587h-8q-117 -352 -168 -575q-53 -14 -95 -14t-56 2q-37 166 -113 408.5t-154 439.5l-67 6q-4 25 -4 56.5z" />
<glyph unicode="x" horiz-adv-x="841" d="M0 51q0 35 4 62l90 6q94 137 252 348q-39 57 -115.5 180t-117.5 187l-88 6q-4 25 -4.5 57.5t6.5 58.5q66 -2 147.5 -2t134.5 2q6 -88 25 -122q106 -221 108 -226q74 123 113 228l-68 6q-4 20 -4 54t6 60q55 -2 164 -2t168 2q6 -27 6 -57.5t-4 -56.5l-90 -6 q-164 -256 -225 -349q43 -63 124 -187t120 -181l88 -6q4 -25 4 -56.5t-6 -58.5q-66 2 -145 2t-132 -2q-8 90 -27.5 132t-123.5 228q-14 -27 -41 -71q-59 -98 -95 -168l66 -6q4 -20 4 -54t-6 -61q-55 2 -164 2t-168 -2z" />
<glyph unicode="y" horiz-adv-x="899" d="M-35 -365q8 119 68 170q61 -84 149 -84q94 0 209 267q-104 367 -330 848l-67 6q-4 25 -4 56.5t6 57.5q59 -2 177 -2t179 2q6 -27 6 -58.5t-4 -55.5l-84 -6q39 -227 201 -609h8q102 332 148 609l-86 6q-4 20 -4 54t6 60q61 -2 170.5 -2t169.5 2q6 -27 6 -57.5t-4 -56.5 l-62 -6q-55 -150 -142 -412t-131 -385t-82 -199t-83 -143q-86 -127 -204 -127t-216 65z" />
<glyph unicode="z" horiz-adv-x="819" d="M31 66q88 137 265 388t251 359q-238 -4 -375 -14l-6 -107q-33 -6 -61.5 -6t-53.5 2q-4 98 -18 270l10 11q129 -19 357 -19h16q215 0 321 13q10 -20 11 -78q-82 -156 -239 -390.5t-218 -344.5q190 2 319 14l6 98q33 6 62 6t53 -2q4 -98 19 -270l-11 -10q-129 18 -328.5 18 t-365.5 -12q-12 31 -14 74z" />
<glyph unicode="{" horiz-adv-x="704" d="M61.5 676q-0.5 35 14.5 55q86 12 116.5 63.5t30.5 137.5l-22 311q0 109 46 169.5t180 60.5t228 24q8 -37 8.5 -82t-16.5 -98q-102 23 -169.5 22.5t-90 -29t-22.5 -106.5l24 -305q0 -80 -35 -144.5t-96 -72.5v-12q61 -8 96 -73t35 -144l-24 -306q0 -78 22.5 -106.5 t90 -28.5t169.5 23q16 -53 16.5 -98.5t-8.5 -81.5q-94 25 -228 24.5t-180 60t-46 169.5l22 311q0 86 -30.5 137t-116.5 64q-14 20 -14.5 55z" />
<glyph unicode="|" horiz-adv-x="538" d="M184 1468q53 25 88 25t76 -6q-20 -281 -20 -898.5t26 -744.5q-59 -25 -96 -24.5t-68 6.5q20 289 20.5 846t-26.5 796z" />
<glyph unicode="}" horiz-adv-x="704" d="M41 -63q0 45 16 98q102 -23 170 -23t90.5 28.5t22.5 106.5l-25 306q0 80 35 144.5t96 72.5v12q-61 8 -96 72.5t-35 144.5l25 305q0 78 -22.5 106.5t-90 28.5t-170.5 -22q-16 53 -16 98t8 82q94 -25 228.5 -24.5t180.5 -60t46 -169.5l-23 -311q0 -86 31 -137.5t117 -63.5 q14 -20 14 -55t-14 -55q-86 -12 -117 -63.5t-31 -137.5l23 -311q0 -109 -46 -169.5t-180.5 -60.5t-228.5 -24q-8 37 -8 82z" />
<glyph unicode="~" d="M172 596q0 80 29 156q51 -68 144 -68t270.5 58.5t274.5 58.5t171 -56q0 -69 -33 -155q-51 68 -143 67.5t-268.5 -58.5t-273.5 -58t-171 55z" />
<glyph unicode="&#xa1;" horiz-adv-x="552" d="M102 836q0 61 37 102t113 41q117 0 117 -119q0 -147 -150 -147q-117 0 -117 123zM133 -420q41 387 41 866q0 68 -4 134q41 12 70.5 12t68.5 -12q-4 -218 -4 -400q0 -377 53 -590q-61 -23 -118.5 -22.5t-106.5 12.5z" />
<glyph unicode="&#xa2;" horiz-adv-x="962" d="M82 637q0 201 86 328t248 161q0 23 -8 168q39 27 127 27q18 0 59 -6q-12 -86 -19 -176q139 -10 216 -74t77 -170.5t-96 -106.5q-57 0 -89 36t-32 88.5t15 78.5q-43 35 -129 35q-133 0 -210 -103.5t-77 -275.5t73.5 -270t194.5 -98q166 0 287 127q59 -61 76 -162 q-152 -113 -338 -113q4 -96 10 -121q-59 -27 -105.5 -26.5t-80.5 6.5l16 160q-301 78 -301 487z" />
<glyph unicode="&#xa3;" horiz-adv-x="1118" d="M113 88l123 59q43 131 43 293q0 61 -7 123h-143q-16 37 -16 63.5t6 51.5h141q-31 244 -31 328q0 170 101.5 264t283.5 94q131 0 227.5 -57.5t135.5 -159.5q12 -37 12 -80q0 -123 -106 -123q-63 0 -98 39t-35 101.5t24 95.5q-63 63 -160.5 63t-150.5 -66.5t-53 -167 t18 -331.5q236 4 373 16q14 -27 14 -73t-8 -70q-231 10 -371 10q4 -102 4 -183t-26 -241h194q80 0 221.5 10.5t174.5 18.5q8 -39 8 -84t-17 -96q-156 18 -335 18t-337.5 -10t-189.5 -19q-20 55 -20 113z" />
<glyph unicode="&#xa5;" horiz-adv-x="1011" d="M6 1258.5q0 23.5 6 58.5q72 -2 177.5 -2t175.5 2q6 -31 6 -54.5t-4 -60.5l-74 -6q39 -145 129 -342t115 -254h8q55 106 116.5 277.5t90.5 318.5l-76 6q-4 33 -4 56.5t6 58.5q66 -2 163 -2t169 2q6 -35 6 -64.5t-4 -50.5l-72 -6q-4 -10 -67.5 -147.5t-100.5 -219.5 q100 4 152 9q14 -29 14 -71t-8 -73q-66 4 -211 8q-39 -94 -72 -184h275q16 -33 16 -61.5t-6 -53.5q-209 0 -324 -2q6 -158 17 -282l73 -6q4 -33 4 -56.5t-6 -58.5q-72 2 -166 2t-163 -2q-6 31 -6.5 54.5t4.5 60.5l71 6q12 178 15 280q-193 -4 -324 -12q-14 29 -14 71t8 72 q152 -8 287 -10q-10 29 -80 187h-199q-16 33 -16 61.5t6 52.5h155q-23 43 -90 176l-98 199l-76 6q-4 33 -4 56.5z" />
<glyph unicode="&#xa6;" horiz-adv-x="538" d="M184 1468q51 25 92 25t72 -6q-20 -289 -20 -688q-55 -14 -81 -14.5t-36 1.5q0 555 -27 682zM190 -174q20 289 21 688q55 14 79.5 14t37.5 -2q-1 -555 26 -682q-63 -25 -98 -24.5t-66 6.5z" />
<glyph unicode="&#xa7;" horiz-adv-x="983" d="M72 -274q8 49 33.5 90t46.5 57l22 14q121 -166 332 -166q106 0 165.5 45.5t59.5 122t-65.5 127t-158.5 85t-185.5 76.5t-158 124t-65.5 203q0 162 109 252q-109 94 -109 249.5t102.5 245.5t258.5 90q307 0 393 -217q12 -37 12 -80q0 -123 -106 -122q-64 0 -98.5 38.5 t-34.5 102t26 96.5q-61 61 -166.5 61.5t-158 -53t-52.5 -135.5t47.5 -134t118 -81t153.5 -64.5t153.5 -73.5t117.5 -112.5t47 -177.5q0 -164 -118 -246q119 -98 118.5 -252.5t-106 -237.5t-299.5 -83q-272 0 -434 156zM274.5 527.5q-0.5 -93.5 63 -145.5t283.5 -142 q111 39 110 155q0 88 -104 150q-31 18 -126 55t-167 74q-59 -53 -59.5 -146.5z" />
<glyph unicode="&#xa8;" horiz-adv-x="968" d="M225 1225q0 115 119 114q92 0 92 -96q0 -113 -119 -113q-92 0 -92 95zM532 1225q0 115 119 114q92 0 92 -96q0 -113 -118 -113q-92 0 -93 95z" />
<glyph unicode="&#xa9;" horiz-adv-x="1261" d="M123 944q0 113 22.5 200t79.5 165q119 162 447 161q252 0 359.5 -122.5t107.5 -375.5t-131 -395.5t-399.5 -142.5t-377 129t-108.5 381zM231 961q0 -244 85 -340.5t268 -96.5q227 0 336.5 119t109.5 331t-85 309t-267 97q-446 0 -447 -419zM365 956q0 338 260 338 q82 0 146.5 -47t64.5 -126t-66 -79q-43 0 -65.5 28t-22.5 64.5t14 57.5q-29 23 -71 22q-154 0 -154 -257t154 -257q82 0 149 78q45 -39 55 -104q-96 -72 -204 -72q-154 0 -207 93t-53 261z" />
<glyph unicode="&#xaa;" horiz-adv-x="669" d="M88 593.5q0 31.5 12 74.5q408 27 492 47q12 -37 12 -65.5t-12 -71.5q-422 -27 -492 -41q-12 25 -12 56.5zM102 942q0 176 201 176q61 0 113 -24q4 45 4 75q0 137 -96 138q-49 0 -78 -25q10 -20 10 -41q0 -78 -70 -78q-61 0 -61 68q0 147 211 147q86 0 139 -43t53 -127 l-6 -174q0 -72 15 -174l45 -2l2 -39q0 -10 -4 -35q-33 -2 -86.5 -7t-75.5 -7q-6 18 -10 57q-70 -63 -149 -63t-118 48t-39 130zM217 957q0 -87 74 -87t115 50q6 80 6 90q-48 34 -109 34q-86 0 -86 -87z" />
<glyph unicode="&#xab;" horiz-adv-x="1013" d="M61 573q90 86 133.5 139.5t90.5 111t84 102.5q63 -19 98 -54l-166 -299q14 -27 166 -299q-41 -41 -98 -53q-37 45 -84 102.5t-72 90.5q-61 74 -152 159zM465 573q90 86 133 139.5t90 111t84 102.5q57 -17 98 -54q-162 -291 -165 -299q68 -127 165 -299q-47 -43 -98 -53 q-37 45 -84 102.5t-74 90.5q-59 74 -149 159z" />
<glyph unicode="&#xac;" d="M178 657.5q0 53.5 15 98.5q141 -18 342 -19q410 0 512 29q-8 -88 -8.5 -216t22.5 -208q-29 -6 -75 -6t-89 14q16 86 16 236q-188 18 -302.5 18t-252 -9t-174.5 -20q-6 29 -6 82.5z" />
<glyph unicode="&#xad;" horiz-adv-x="724" d="M123 465q0 35 12 84q387 27 455 43q12 -29 12 -63.5t-12 -84.5q-387 -27 -455 -43q-12 29 -12 64z" />
<glyph unicode="&#xae;" horiz-adv-x="1261" d="M123 944q0 113 22.5 200t79.5 165q119 162 447 161q252 0 359.5 -122.5t107.5 -375.5t-131 -395.5t-399.5 -142.5t-377 129t-108.5 381zM231 961q0 -244 85 -340.5t268 -96.5q227 0 336.5 119t109.5 331t-85 309t-267 97q-446 0 -447 -419zM365 1230q0 19 2 30 q12 2 98 18t149 16q125 0 178.5 -53t53.5 -140t-42 -144.5t-124 -69.5q43 -72 125 -195l57 -4q2 -12 2 -33.5t-2 -40.5q-115 -4 -149 -6q-96 195 -150 281q0 59 23 82q27 -12 61.5 -12.5t61 38.5t26.5 90q0 127 -121 127q-45 0 -82 -14q-6 -76 -6 -233.5t11 -280.5l49 -2 q2 -12 2 -35.5t-4 -38.5q-43 2 -105.5 2t-103.5 -2q-6 20 -6 39t2 35l47 2q10 106 10 256t-8 240l-51 4q-4 25 -4 44z" />
<glyph unicode="&#xaf;" horiz-adv-x="956" d="M225 1222.5q0 47.5 8 80.5q82 -8 253 -8.5t241 18.5q4 -29 4 -70t-10 -74q-96 8 -262 8.5t-232 -16.5q-2 14 -2 61.5z" />
<glyph unicode="&#xb0;" horiz-adv-x="700" d="M82 1119q0 130 62.5 205t212 75t205.5 -64.5t56 -197.5t-69.5 -208t-210.5 -75t-198.5 67.5t-57.5 197.5zM195 1130q0 -94 32.5 -131.5t112.5 -37.5t123 46t43 129t-32.5 119.5t-104.5 36.5q-174 0 -174 -162z" />
<glyph unicode="&#xb1;" d="M178 61q0 54 15 99q141 -18 342 -19q410 0 512 29q6 -27 5.5 -81t-14.5 -99q-188 18 -365 18t-314.5 -9t-174.5 -19q-6 27 -6 81zM178 738.5q0 54.5 15 99.5q135 -18 356 -19q-5 201 -19 357q45 14 98.5 14t82.5 -6q-10 -35 -19.5 -165t-9.5 -200q70 0 200 9.5t165 19.5 q6 -29 6 -82t-15 -98q-156 14 -356 18q0 -221 18 -356q-45 -14 -98 -14.5t-82 6.5q23 90 29 364q-274 -6 -365 -29q-6 27 -6 81.5z" />
<glyph unicode="&#xb2;" horiz-adv-x="714" d="M76 670q61 106 196 241q193 193 193 291q0 47 -28.5 87t-89 40t-99.5 -37q10 -20 10 -52t-22.5 -58.5t-67.5 -26.5q-72 0 -72 85t77 137.5t180.5 52.5t177 -57.5t73.5 -166.5q0 -57 -36 -122.5t-71.5 -106.5t-116.5 -125t-108 -119l203 4q19 0 39 2l4 86q27 6 55 6h48 q4 -111 10 -202l-19 -19q-92 14 -239 15h-23q-158 0 -266 -21q-8 41 -8 66z" />
<glyph unicode="&#xb3;" horiz-adv-x="757" d="M84 692q6 35 25.5 65.5t35.5 45.5l17 12q72 -104 184 -104q82 0 122 36.5t40 94.5q0 94 -82 127q-31 -2 -81 -2t-89 6q-4 25 -4 48t16 48q35 -12 93.5 -12t90 45t31.5 95t-29.5 88t-86.5 38t-88 -29q6 -18 6 -50t-24.5 -60.5t-72.5 -28.5q-78 0 -77.5 88t77 137.5 t180 49.5t177 -57.5t73.5 -172.5t-86 -168q115 -59 115 -178t-73.5 -185.5t-233.5 -66.5t-256 90z" />
<glyph unicode="&#xb4;" horiz-adv-x="868" d="M225 1157q39 27 98.5 66t86.5 59q84 57 151 115q43 -37 61.5 -71t20.5 -91q-123 -50 -377 -154q-31 33 -41 76z" />
<glyph unicode="&#xb5;" horiz-adv-x="993" d="M119 -373q41 387 41 751.5t-37 559.5q45 18 103.5 18t113.5 -6q-31 -281 -31 -477.5t28 -276t123 -79.5t220 125q4 61 4 182q0 338 -37 514q78 20 129 20t88 -8q-31 -279 -30.5 -476.5t16.5 -336.5l78 -4q4 -33 4 -59.5t-6 -59.5q-80 -4 -224 -20q-16 37 -24 102 q-74 -61 -127 -83.5t-134 -22.5t-134 47q10 -240 51 -399q-61 -23 -113.5 -23t-101.5 12z" />
<glyph unicode="&#xb6;" horiz-adv-x="1048" d="M154 952q0 389 446 389q231 0 391 -77q0 -55 -14 -99.5t-29 -56.5q-49 34 -110 61q-18 -147 -18.5 -496t18.5 -554l73 -6q4 -33 4 -56.5t-6 -58.5q-72 2 -172 2t-178 -2q-6 31 -6 54.5t4 60.5l92 6q12 176 17 454q-41 -10 -95 -10q-209 0 -313 112.5t-104 276.5zM332 961 q0 -100 49 -180.5t162 -80.5q68 0 123 33q-1 283 -21 490l-43 2q-270 0 -270 -264z" />
<glyph unicode="&#xb7;" horiz-adv-x="552" d="M184 494q0 147 150 147q117 0 117 -123q0 -61 -37 -102t-113 -41q-117 0 -117 119z" />
<glyph unicode="&#xb8;" horiz-adv-x="1028" d="M309 -368q0 32 27 73q45 -41 130 -41t85 80q0 61 -92 61q-41 0 -99 -8l33 183l86 18l4 -109q207 -8 207 -143q0 -176 -227 -176q-92 0 -152 24q-2 6 -2 38z" />
<glyph unicode="&#xb9;" horiz-adv-x="583" d="M61 1286q90 37 271 144q74 -1 92 -9q-18 -135 -18 -362.5t10 -341.5l114 -10q2 -12 2 -38t-6 -61q-70 2 -182.5 2t-179.5 -2q-8 25 -8 52.5t4 46.5l112 10q8 137 8.5 305t-4.5 240q-104 -70 -139 -105q-59 63 -76 129z" />
<glyph unicode="&#xba;" horiz-adv-x="677" d="M98.5 593.5q-0.5 31.5 12.5 74.5q406 29 454 39q12 -25 12.5 -57t-12.5 -75q-405 -28 -454 -38q-12 25 -12.5 56.5zM102 1077q0 301 236.5 301t236.5 -301q0 -145 -51 -229t-186 -84t-185.5 84t-50.5 229zM221 1080q0 -210 117 -210t117 210t-117 210t-117 -210z" />
<glyph unicode="&#xbb;" horiz-adv-x="1013" d="M143 274q98 172 166 299q-4 8 -166 299q41 37 99 54q37 -45 84 -102.5t71 -90.5q61 -74 152 -160q-90 -86 -133 -139t-90 -110.5t-84 -102.5q-51 10 -99 53zM547 274q152 272 166 299l-166 299q35 35 98 54q37 -45 84 -102.5t74 -90.5q59 -74 149 -160q-90 -86 -133 -139 t-90 -110.5t-84 -102.5q-55 12 -98 53z" />
<glyph unicode="&#xbc;" horiz-adv-x="1820" d="M164 1194q90 37 270 143q74 0 92 -8q-18 -135 -18 -362.5t10 -341.5l115 -11q2 -12 2 -38.5t-6 -59.5q-70 2 -182.5 2t-180.5 -2q-8 25 -8 52.5t4 45.5l113 11q8 137 8 305t-4 239q-104 -70 -139 -104q-59 63 -76 129zM508 -55q254 598 520 1460q33 4 53 4q57 0 109 -37 q-248 -571 -522 -1462q-33 -4 -43 -4q-70 0 -117 39zM993 260q215 336 307 524q47 18 92.5 18.5t114.5 -5.5q-18 -139 -18 -291t2 -182q49 8 63 12q12 -37 12.5 -73t-14.5 -73q-55 6 -57 7q0 -59 6 -103l62 -8q2 -12 2 -39t-6 -59q-51 2 -135.5 2t-125.5 -2q-8 25 -8 52.5 t4 45.5l58 8q0 2 6 109h-90q-166 0 -264 -6q-10 27 -11 63zM1157 311q144 2 205 2q2 23 2 121t-6 236q-74 -111 -201 -359z" />
<glyph unicode="&#xbd;" horiz-adv-x="1820" d="M164 1194q90 37 270 143q74 0 92 -8q-18 -135 -18 -362.5t10 -341.5l115 -11q2 -12 2 -38.5t-6 -59.5q-70 2 -182.5 2t-180.5 -2q-8 25 -8 52.5t4 45.5l113 11q8 137 8 305t-4 239q-104 -70 -139 -104q-59 63 -76 129zM485 -55q254 598 521 1460q33 4 53 4q57 0 108 -37 q-248 -571 -522 -1462q-33 -4 -43 -4q-70 0 -117 39zM1042 49q61 106 197 242q193 193 193 291q0 47 -29 87t-89.5 40t-99.5 -37q10 -20 10.5 -52t-22 -58.5t-67.5 -26.5q-72 0 -72 85t77 137t180 52t177 -57.5t74 -165.5q0 -57 -36 -123t-72 -107t-116.5 -125t-107.5 -118 l156 2q45 0 86 4l4 86q27 6 55 6h47q4 -111 10 -203l-18 -18q-92 14 -240 14h-22q-158 0 -266 -20q-8 41 -9 65z" />
<glyph unicode="&#xbe;" horiz-adv-x="1820" d="M150 600q6 35 25.5 65.5t35.5 43.5l16 14q72 -104 185 -105q82 0 121.5 37t39.5 95q0 94 -81 127q-31 -2 -81.5 -2.5t-88.5 6.5q-4 25 -4.5 48t16.5 48q35 -12 93 -12t90 45t32 95t-30 88t-87 38t-88 -29q6 -18 6 -50t-24.5 -60.5t-71.5 -28.5q-78 0 -78 88t77 137 t180.5 49t177 -57t73.5 -172t-86 -168q115 -59 115 -178t-74 -185.5t-233.5 -66.5t-255.5 90zM569 -55q254 598 521 1460q33 4 53 4q57 0 108 -37q-248 -571 -522 -1462q-33 -4 -43 -4q-70 0 -117 39zM993 260q215 336 307 524q47 18 92.5 18.5t114.5 -5.5 q-18 -139 -18 -291t2 -182q49 8 63 12q12 -37 12.5 -73t-14.5 -73q-55 6 -57 7q0 -59 6 -103l62 -8q2 -12 2 -39t-6 -59q-51 2 -135.5 2t-125.5 -2q-8 25 -8 52.5t4 45.5l58 8q0 2 6 109h-90q-166 0 -264 -6q-10 27 -11 63zM1157 311q144 2 205 2q2 23 2 121t-6 236 q-74 -111 -201 -359z" />
<glyph unicode="&#xbf;" horiz-adv-x="878" d="M111 -139q0 129 118 233q49 43 99 82q121 96 121 187.5t-64 160.5q51 68 125 76q78 -143 78 -244.5t-111 -218.5q-16 -18 -64 -66t-69 -73q-63 -76 -63 -145.5t52 -118.5t125.5 -49t119.5 39q-18 31 -18.5 80t30.5 86.5t90 37.5q96 0 96 -115.5t-98 -179t-226 -63.5 t-234.5 78t-106.5 213zM330 836q0 61 36.5 102t112.5 41q117 0 117 -119q0 -147 -150 -147q-116 0 -116 123z" />
<glyph unicode="&#xc0;" horiz-adv-x="1148" d="M-2 56.5q0 27.5 4 56.5l72 6q246 674 323 1067l-82 6q-6 25 -6 63.5t2 51.5q180 23 268.5 22.5t149.5 -20.5q49 -385 342 -1190l76 -6q4 -45 4 -62.5t-6 -52.5q-57 2 -178 2t-168 -2q-6 31 -6 58.5t4 56.5l71 6q-10 49 -32.5 142t-24.5 104q-117 6 -253 6t-255 -9 l-57 -243l78 -6q4 -45 4 -62.5t-6 -52.5q-49 2 -161 2t-157 -2q-6 31 -6 58.5zM324 1554q0 68 13 100t54 77q78 -66 134.5 -97.5t69.5 -40t64.5 -37t65.5 -36.5q-6 -43 -33 -78q-129 27 -368 112zM340 506q70 -2 209 -2t225 6q-96 365 -203 674h-12q-121 -293 -219 -678z " />
<glyph unicode="&#xc1;" horiz-adv-x="1148" d="M-2 56.5q0 27.5 4 56.5l72 6q246 674 323 1067l-82 6q-6 25 -6 63.5t2 51.5q180 23 268.5 22.5t149.5 -20.5q49 -385 342 -1190l76 -6q4 -45 4 -62.5t-6 -52.5q-57 2 -178 2t-168 -2q-6 31 -6 58.5t4 56.5l71 6q-10 49 -32.5 142t-24.5 104q-117 6 -253 6t-255 -9 l-57 -243l78 -6q4 -45 4 -62.5t-6 -52.5q-49 2 -161 2t-157 -2q-6 31 -6 58.5zM340 506q70 -2 209 -2t225 6q-96 365 -203 674h-12q-121 -293 -219 -678zM408 1522q43 23 103 53.5t91 46.5q90 49 150 94q61 -67 61 -143q0 -25 -2 -37q-252 -76 -373 -94q-27 35 -30 80z" />
<glyph unicode="&#xc2;" horiz-adv-x="1148" d="M-2 56.5q0 27.5 4 56.5l72 6q246 674 323 1067l-82 6q-6 25 -6 63.5t2 51.5q180 23 268.5 22.5t149.5 -20.5q49 -385 342 -1190l76 -6q4 -45 4 -62.5t-6 -52.5q-57 2 -178 2t-168 -2q-6 31 -6 58.5t4 56.5l71 6q-10 49 -32.5 142t-24.5 104q-117 6 -253 6t-255 -9 l-57 -243l78 -6q4 -45 4 -62.5t-6 -52.5q-49 2 -161 2t-157 -2q-6 31 -6 58.5zM270 1522q43 29 80 47t66.5 36.5t44 29t39.5 26.5q29 20 78 70q90 -86 292 -211q-5 -43 -32 -78q-139 43 -260 106q-178 -82 -277 -106q-25 37 -31 80zM340 506q70 -2 209 -2t225 6 q-96 365 -203 674h-12q-121 -293 -219 -678z" />
<glyph unicode="&#xc3;" horiz-adv-x="1148" d="M-2 56.5q0 27.5 4 56.5l72 6q246 674 323 1067l-82 6q-6 25 -6 63.5t2 51.5q180 23 268.5 22.5t149.5 -20.5q49 -385 342 -1190l76 -6q4 -45 4 -62.5t-6 -52.5q-57 2 -178 2t-168 -2q-6 31 -6 58.5t4 56.5l71 6q-10 49 -32.5 142t-24.5 104q-117 6 -253 6t-255 -9 l-57 -243l78 -6q4 -45 4 -62.5t-6 -52.5q-49 2 -161 2t-157 -2q-6 31 -6 58.5zM270 1509q31 53 92.5 94.5t115.5 41.5t119 -34t95 -34q74 0 111 65q55 -23 65 -65q-30 -53 -91.5 -94t-113 -41t-116 33.5t-101.5 33.5q-74 0 -110 -65q-55 23 -66 65zM340 506q70 -2 209 -2 t225 6q-96 365 -203 674h-12q-121 -293 -219 -678z" />
<glyph unicode="&#xc4;" horiz-adv-x="1148" d="M-2 56.5q0 27.5 4 56.5l72 6q246 674 323 1067l-82 6q-6 25 -6 63.5t2 51.5q180 23 268.5 22.5t149.5 -20.5q49 -385 342 -1190l76 -6q4 -45 4 -62.5t-6 -52.5q-57 2 -178 2t-168 -2q-6 31 -6 58.5t4 56.5l71 6q-10 49 -32.5 142t-24.5 104q-117 6 -253 6t-255 -9 l-57 -243l78 -6q4 -45 4 -62.5t-6 -52.5q-49 2 -161 2t-157 -2q-6 31 -6 58.5zM315 1536q0 115 119 115q92 -1 92 -97q0 -113 -118 -112q-92 0 -93 94zM340 506q70 -2 209 -2t225 6q-96 365 -203 674h-12q-121 -293 -219 -678zM623 1536q0 115 118 115q93 -1 93 -97 q0 -113 -119 -112q-92 0 -92 94z" />
<glyph unicode="&#xc5;" horiz-adv-x="1148" d="M-2 56.5q0 27.5 4 56.5l72 6q246 674 323 1067l-82 6q-6 25 -6 63.5t2 51.5q180 23 268.5 22.5t149.5 -20.5q49 -385 342 -1190l76 -6q4 -45 4 -62.5t-6 -52.5q-57 2 -178 2t-168 -2q-6 31 -6 58.5t4 56.5l71 6q-10 49 -32.5 142t-24.5 104q-117 6 -253 6t-255 -9 l-57 -243l78 -6q4 -45 4 -62.5t-6 -52.5q-49 2 -161 2t-157 -2q-6 31 -6 58.5zM340 506q70 -2 209 -2t225 6q-96 365 -203 674h-12q-121 -293 -219 -678zM395 1599q0 162 193 162q90 0 127 -36.5t37 -120.5q0 -162 -193 -162q-88 0 -126 39t-38 118zM475 1604 q0 -47 20.5 -66.5t67.5 -19.5q109 0 109 88q0 43 -20.5 61.5t-67.5 18.5q-109 0 -109 -82z" />
<glyph unicode="&#xc6;" horiz-adv-x="1589" d="M-2 52.5q0 23.5 4 60.5l74 6q309 676 424 1071l-72 6q-4 37 -4 60.5t6 54.5q43 -2 105 -2h378q418 0 502 18l10 -10q-14 -158 -18 -291q-25 -2 -52.5 -2t-62.5 6l-6 139q-123 6 -242.5 6.5t-179.5 -6.5q2 -129 31 -421q41 -2 137 -2.5t219 10.5l6 75q33 4 57.5 4.5 t57.5 -6.5q-2 -72 -2 -148.5t2 -145.5q-31 -6 -54.5 -6.5t-60.5 3.5l-6 72q-78 4 -170 4t-170 -4q31 -298 62 -448q106 -8 186 -8.5t178 12.5l6 139q33 6 62 6t53 -2q6 -156 19 -303l-11 -10q-92 10 -573 10q-35 0 -100 -8q0 166 -17 375q-168 4 -246.5 4t-189.5 -9 l-84 -243l78 -6q4 -33 4 -56.5t-6 -58.5q-74 2 -169 2t-159 -2q-6 31 -6 54.5zM393 506q86 -2 204 -2t169 4l-12 127q-43 354 -80 549h-15q-168 -406 -266 -678z" />
<glyph unicode="&#xc7;" horiz-adv-x="1097" d="M113 670.5q0 330.5 129 500.5t379 170q154 0 273.5 -80.5t119.5 -209.5t-107 -129q-63 0 -98 38.5t-35 101t27 97.5q-66 61 -180 62q-168 0 -254 -140.5t-86 -412.5q0 -547 340 -547q82 0 166.5 40t144.5 105q63 -51 82 -162q-182 -135 -393 -135h-21l4 -80 q207 -8 207 -143q0 -176 -227 -176q-92 0 -152 24q-2 6 -2 38t27 73q45 -41 130 -41t85 80q0 61 -92 61q-41 0 -99 -8l31 180q-209 29 -304 196t-95 497.5z" />
<glyph unicode="&#xc8;" horiz-adv-x="1062" d="M133 1251.5q0 28.5 6 59.5q51 -2 375 -2t416 18l10 -10q-16 -180 -18 -291q-20 -2 -51 -2t-64 6l-6 139q-104 6 -217 6.5t-187 -6.5q-12 -129 -12 -421q33 -2 133 -2.5t232 8.5l6 77q45 4 61.5 4.5t52.5 -6.5q-2 -63 -2 -163.5t2 -130.5q-31 -6 -59.5 -6.5t-54.5 3.5 l-6 72q-111 4 -182.5 4t-182.5 -4q0 -268 14 -448q72 -6 204 -6t208 10l6 139q35 6 64.5 6t50.5 -2q2 -160 18 -303l-10 -10q-100 10 -439 10t-358 -2q-6 31 -6 58.5t4 56.5l72 6q18 317 18 574t-24 497l-70 6q-4 27 -4 55.5zM362 1554q0 68 13.5 100t54.5 77 q78 -66 134.5 -97.5t69.5 -40t64.5 -37t65.5 -36.5q-6 -43 -33 -78q-129 27 -369 112z" />
<glyph unicode="&#xc9;" horiz-adv-x="1062" d="M133 1251.5q0 28.5 6 59.5q51 -2 375 -2t416 18l10 -10q-16 -180 -18 -291q-20 -2 -51 -2t-64 6l-6 139q-104 6 -217 6.5t-187 -6.5q-12 -129 -12 -421q33 -2 133 -2.5t232 8.5l6 77q45 4 61.5 4.5t52.5 -6.5q-2 -63 -2 -163.5t2 -130.5q-31 -6 -59.5 -6.5t-54.5 3.5 l-6 72q-111 4 -182.5 4t-182.5 -4q0 -268 14 -448q72 -6 204 -6t208 10l6 139q35 6 64.5 6t50.5 -2q2 -160 18 -303l-10 -10q-100 10 -439 10t-358 -2q-6 31 -6 58.5t4 56.5l72 6q18 317 18 574t-24 497l-70 6q-4 27 -4 55.5zM426 1522q43 23 103.5 53.5t91.5 46.5 q90 49 149 94q61 -67 61 -143q0 -25 -2 -37q-252 -76 -372 -94q-27 35 -31 80z" />
<glyph unicode="&#xca;" horiz-adv-x="1062" d="M133 1251.5q0 28.5 6 59.5q51 -2 375 -2t416 18l10 -10q-16 -180 -18 -291q-20 -2 -51 -2t-64 6l-6 139q-104 6 -217 6.5t-187 -6.5q-12 -129 -12 -421q33 -2 133 -2.5t232 8.5l6 77q45 4 61.5 4.5t52.5 -6.5q-2 -63 -2 -163.5t2 -130.5q-31 -6 -59.5 -6.5t-54.5 3.5 l-6 72q-111 4 -182.5 4t-182.5 -4q0 -268 14 -448q72 -6 204 -6t208 10l6 139q35 6 64.5 6t50.5 -2q2 -160 18 -303l-10 -10q-100 10 -439 10t-358 -2q-6 31 -6 58.5t4 56.5l72 6q18 317 18 574t-24 497l-70 6q-4 27 -4 55.5zM276 1522q43 29 80 47t67 36.5t44 29t37 26.5 q31 20 80 70q90 -86 293 -211q-6 -43 -33 -78q-139 43 -260 106q-178 -82 -277 -106q-25 37 -31 80z" />
<glyph unicode="&#xcb;" horiz-adv-x="1062" d="M133 1251.5q0 28.5 6 59.5q51 -2 375 -2t416 18l10 -10q-16 -180 -18 -291q-20 -2 -51 -2t-64 6l-6 139q-104 6 -217 6.5t-187 -6.5q-12 -129 -12 -421q33 -2 133 -2.5t232 8.5l6 77q45 4 61.5 4.5t52.5 -6.5q-2 -63 -2 -163.5t2 -130.5q-31 -6 -59.5 -6.5t-54.5 3.5 l-6 72q-111 4 -182.5 4t-182.5 -4q0 -268 14 -448q72 -6 204 -6t208 10l6 139q35 6 64.5 6t50.5 -2q2 -160 18 -303l-10 -10q-100 10 -439 10t-358 -2q-6 31 -6 58.5t4 56.5l72 6q18 317 18 574t-24 497l-70 6q-4 27 -4 55.5zM313 1536q0 115 119 115q92 -1 92 -97 q0 -113 -118 -112q-92 0 -93 94zM621 1536q0 115 118 115q92 -1 92 -97q0 -113 -118 -112q-92 0 -92 94z" />
<glyph unicode="&#xcc;" horiz-adv-x="649" d="M123 1554q0 68 13.5 100t53.5 77q78 -66 134.5 -97.5t70 -40t64.5 -37t65 -36.5q-5 -43 -32 -78q-129 27 -369 112zM154 52.5q0 23.5 4 60.5l71 6q16 221 16.5 564t-18.5 513l-69 6q-4 33 -4 56.5t6 58.5q72 -2 166 -2t163 2q6 -31 6.5 -54.5t-3.5 -60.5l-78 -6 q-14 -166 -14.5 -514t18.5 -563l74 -6q4 -33 4 -56.5t-7 -58.5q-72 2 -166 2t-163 -2q-6 31 -6 54.5z" />
<glyph unicode="&#xcd;" horiz-adv-x="649" d="M154 52.5q0 23.5 4 60.5l71 6q16 221 16.5 564t-18.5 513l-69 6q-4 33 -4 56.5t6 58.5q72 -2 166 -2t163 2q6 -31 6.5 -54.5t-3.5 -60.5l-78 -6q-14 -166 -14.5 -514t18.5 -563l74 -6q4 -33 4 -56.5t-7 -58.5q-72 2 -166 2t-163 -2q-6 31 -6 54.5zM176 1522 q43 23 103.5 53.5t91.5 46.5q90 49 149 94q62 -67 62 -143q0 -25 -2 -37q-252 -76 -373 -94q-27 35 -31 80z" />
<glyph unicode="&#xce;" horiz-adv-x="649" d="M23 1522q43 29 79.5 47t66.5 36.5t44 29t37 26.5q31 20 80 70q90 -86 293 -211q-6 -43 -33 -78q-139 43 -260 106q-178 -82 -277 -106q-25 37 -30 80zM154 52.5q0 23.5 4 60.5l71 6q16 221 16.5 564t-18.5 513l-69 6q-4 33 -4 56.5t6 58.5q72 -2 166 -2t163 2 q6 -31 6.5 -54.5t-3.5 -60.5l-78 -6q-14 -166 -14.5 -514t18.5 -563l74 -6q4 -33 4 -56.5t-7 -58.5q-72 2 -166 2t-163 -2q-6 31 -6 54.5z" />
<glyph unicode="&#xcf;" horiz-adv-x="649" d="M63 1536q0 115 119 115q92 -1 92 -97q0 -113 -118 -112q-92 0 -93 94zM154 52.5q0 23.5 4 60.5l71 6q16 221 16.5 564t-18.5 513l-69 6q-4 33 -4 56.5t6 58.5q72 -2 166 -2t163 2q6 -31 6.5 -54.5t-3.5 -60.5l-78 -6q-14 -166 -14.5 -514t18.5 -563l74 -6q4 -33 4 -56.5 t-7 -58.5q-72 2 -166 2t-163 -2q-6 31 -6 54.5zM371 1536q0 115 118 115q93 -1 93 -97q0 -113 -119 -112q-92 0 -92 94z" />
<glyph unicode="&#xd0;" horiz-adv-x="1261" d="M92 661q0 50 14 99q63 -8 132 -12q-6 311 -21 438l-80 6q-6 25 -6 64.5t2 50.5q133 2 248 18t229 16q260 0 399.5 -175t139.5 -500q0 -697 -539 -697q-115 0 -208 11.5t-269 23.5q-2 10 -2 48t6 67l82 6q16 197 19 471q-41 -4 -140 -16q-6 31 -6 81zM391 604 q0 -283 17 -446q96 -43 202 -43q176 0 269.5 141t93.5 408.5t-94.5 412t-270.5 144.5q-98 0 -202 -39q-14 -166 -15 -439q156 0 307 27q6 -31 6.5 -81t-14.5 -99q-117 14 -264 14h-35z" />
<glyph unicode="&#xd1;" horiz-adv-x="1331" d="M123 1255.5q0 34.5 2 51.5q174 4 258 10q39 -147 221 -442t385 -578q6 172 6 450.5t-18 448.5l-76 6q-4 33 -4 56.5t6 58.5q66 -2 151 -2t148 2q6 -31 6 -54.5t-4 -60.5l-71 -6q-14 -166 -14.5 -623.5t34.5 -568.5q-61 -20 -89 -20t-97 4q-14 63 -121 230t-265.5 398.5 t-228.5 346.5q-2 -88 -2 -358.5t19 -485.5l75 -6q4 -33 4.5 -56.5t-6.5 -58.5q-66 2 -151.5 2t-149.5 -2q-6 31 -6 54.5t4 60.5l72 6q16 221 16 560t-18 507l-80 6q-6 29 -6 63.5zM362 1509q31 53 92.5 94.5t116 41.5t119 -34t94.5 -34q74 0 111 65q55 -23 66 -65 q-31 -53 -92.5 -94t-112.5 -41t-116 33.5t-101 33.5q-74 0 -111 -65q-55 23 -66 65z" />
<glyph unicode="&#xd2;" d="M113 670q0 672 502.5 671.5t502.5 -671.5q0 -123 -9 -215.5t-41 -188.5t-85 -157.5t-146.5 -100.5t-221.5 -39t-221 39t-146 100.5t-85 157.5t-41 188.5t-9 215.5zM274 668q0 -396 168 -502q70 -45 173.5 -45t174 45t105.5 129q61 145 61 373q0 553 -341 553t-341 -553z M414 1554q0 68 13 100t54 77q78 -66 134.5 -97.5t69.5 -40t64.5 -37t65.5 -36.5q-6 -43 -33 -78q-129 27 -368 112z" />
<glyph unicode="&#xd3;" d="M113 670q0 672 502.5 671.5t502.5 -671.5q0 -123 -9 -215.5t-41 -188.5t-85 -157.5t-146.5 -100.5t-221.5 -39t-221 39t-146 100.5t-85 157.5t-41 188.5t-9 215.5zM274 668q0 -396 168 -502q70 -45 173.5 -45t174 45t105.5 129q61 145 61 373q0 553 -341 553t-341 -553z M469 1522q43 23 103.5 53.5t91.5 46.5q90 49 149 94q61 -67 61 -143q0 -25 -2 -37q-252 -76 -372 -94q-27 35 -31 80z" />
<glyph unicode="&#xd4;" d="M113 670q0 672 502.5 671.5t502.5 -671.5q0 -123 -9 -215.5t-41 -188.5t-85 -157.5t-146.5 -100.5t-221.5 -39t-221 39t-146 100.5t-85 157.5t-41 188.5t-9 215.5zM274 668q0 -396 168 -502q70 -45 173.5 -45t174 45t105.5 129q61 145 61 373q0 553 -341 553t-341 -553z M307 1522q43 29 80 47t66.5 36.5t44 29t39.5 26.5q29 20 77 70q90 -86 293 -211q-6 -43 -33 -78q-139 43 -260 106q-178 -82 -276 -106q-25 37 -31 80z" />
<glyph unicode="&#xd5;" d="M113 670q0 672 502.5 671.5t502.5 -671.5q0 -123 -9 -215.5t-41 -188.5t-85 -157.5t-146.5 -100.5t-221.5 -39t-221 39t-146 100.5t-85 157.5t-41 188.5t-9 215.5zM274 668q0 -396 168 -502q70 -45 173.5 -45t174 45t105.5 129q61 145 61 373q0 553 -341 553t-341 -553z M315 1509q31 53 92.5 94.5t116 41.5t119 -34t94.5 -34q74 0 111 65q55 -23 65 -65q-30 -53 -91.5 -94t-113 -41t-116 33.5t-100.5 33.5q-74 0 -111 -65q-55 23 -66 65z" />
<glyph unicode="&#xd6;" d="M113 670q0 672 502.5 671.5t502.5 -671.5q0 -123 -9 -215.5t-41 -188.5t-85 -157.5t-146.5 -100.5t-221.5 -39t-221 39t-146 100.5t-85 157.5t-41 188.5t-9 215.5zM274 668q0 -396 168 -502q70 -45 173.5 -45t174 45t105.5 129q61 145 61 373q0 553 -341 553t-341 -553z M360 1536q0 115 119 115q92 -1 92 -97q0 -113 -118 -112q-92 0 -93 94zM668 1536q0 115 118 115q93 -1 93 -97q0 -113 -119 -112q-92 0 -92 94z" />
<glyph unicode="&#xd7;" d="M213 389q94 72 307 281q-157 157 -307 282q41 78 121 133q18 -31 120.5 -146.5t159.5 -174.5q51 51 157 171t126 150q80 -55 121 -133q-127 -104 -309 -282q207 -203 309 -281q-27 -49 -56.5 -77.5t-64.5 -55.5q-20 31 -125.5 149.5t-157.5 169.5q-59 -61 -160.5 -174.5 t-119.5 -144.5q-80 57 -121 133z" />
<glyph unicode="&#xd8;" d="M113 670q0 672 501 671q76 0 131 -14l41 152q33 4 52 4q51 0 104 -41l-61 -166q238 -145 237 -606q0 -123 -9 -215.5t-41 -188.5t-85 -157.5t-146.5 -100.5t-194.5 -39t-163 13l-39 -148q-23 -6 -41 -6q-66 0 -110 43l55 160q-137 78 -184 238.5t-47 400.5zM274 668 q0 -346 129 -471q160 473 310 1009q-53 14 -99 15q-340 0 -340 -553zM522 131q45 -10 92 -10q209 0 281 174q61 145 61 373q0 330 -127 465q-162 -473 -307 -1002z" />
<glyph unicode="&#xd9;" horiz-adv-x="1318" d="M113 1258.5q0 23.5 6 58.5q72 -2 166 -2t164 2q6 -31 6 -54.5t-4 -60.5l-70 -6q-16 -201 -16 -631q0 -229 63.5 -336.5t251.5 -107.5t248.5 107.5t60.5 336.5q0 442 -20 631l-72 6q-4 33 -4 56.5t6 58.5q66 -2 152 -2t149 2q6 -31 6 -54.5t-4 -60.5l-67 -6 q-16 -201 -16.5 -476.5t-8.5 -358t-35.5 -162.5t-77.5 -127q-106 -102 -331 -103q-289 0 -379 162q-45 86 -60.5 184.5t-15.5 395.5t-21 485l-73 6q-4 33 -4 56.5zM399 1554q0 68 13.5 100t54.5 77q78 -66 134 -97.5t69.5 -40t64.5 -37t66 -36.5q-6 -43 -33 -78 q-129 27 -369 112z" />
<glyph unicode="&#xda;" horiz-adv-x="1318" d="M113 1258.5q0 23.5 6 58.5q72 -2 166 -2t164 2q6 -31 6 -54.5t-4 -60.5l-70 -6q-16 -201 -16 -631q0 -229 63.5 -336.5t251.5 -107.5t248.5 107.5t60.5 336.5q0 442 -20 631l-72 6q-4 33 -4 56.5t6 58.5q66 -2 152 -2t149 2q6 -31 6 -54.5t-4 -60.5l-67 -6 q-16 -201 -16.5 -476.5t-8.5 -358t-35.5 -162.5t-77.5 -127q-106 -102 -331 -103q-289 0 -379 162q-45 86 -60.5 184.5t-15.5 395.5t-21 485l-73 6q-4 33 -4 56.5zM502 1522q43 23 103.5 53.5t90.5 46.5q90 49 150 94q61 -67 61 -143q0 -25 -2 -37q-252 -76 -373 -94 q-27 35 -30 80z" />
<glyph unicode="&#xdb;" horiz-adv-x="1318" d="M113 1258.5q0 23.5 6 58.5q72 -2 166 -2t164 2q6 -31 6 -54.5t-4 -60.5l-70 -6q-16 -201 -16 -631q0 -229 63.5 -336.5t251.5 -107.5t248.5 107.5t60.5 336.5q0 442 -20 631l-72 6q-4 33 -4 56.5t6 58.5q66 -2 152 -2t149 2q6 -31 6 -54.5t-4 -60.5l-67 -6 q-16 -201 -16.5 -476.5t-8.5 -358t-35.5 -162.5t-77.5 -127q-106 -102 -331 -103q-289 0 -379 162q-45 86 -60.5 184.5t-15.5 395.5t-21 485l-73 6q-4 33 -4 56.5zM365 1522q43 29 79.5 47t66.5 36.5t44 29t39 26.5q29 20 78 70q90 -86 293 -211q-6 -43 -33 -78 q-139 43 -260 106q-178 -82 -277 -106q-25 37 -30 80z" />
<glyph unicode="&#xdc;" horiz-adv-x="1318" d="M113 1258.5q0 23.5 6 58.5q72 -2 166 -2t164 2q6 -31 6 -54.5t-4 -60.5l-70 -6q-16 -201 -16 -631q0 -229 63.5 -336.5t251.5 -107.5t248.5 107.5t60.5 336.5q0 442 -20 631l-72 6q-4 33 -4 56.5t6 58.5q66 -2 152 -2t149 2q6 -31 6 -54.5t-4 -60.5l-67 -6 q-16 -201 -16.5 -476.5t-8.5 -358t-35.5 -162.5t-77.5 -127q-106 -102 -331 -103q-289 0 -379 162q-45 86 -60.5 184.5t-15.5 395.5t-21 485l-73 6q-4 33 -4 56.5zM424 1536q0 115 119 115q92 -1 92 -97q0 -113 -119 -112q-92 0 -92 94zM731 1536q0 115 119 115 q92 -1 92 -97q0 -113 -119 -112q-92 0 -92 94z" />
<glyph unicode="&#xdd;" horiz-adv-x="1013" d="M2 1258.5q0 23.5 6 58.5q72 -2 177.5 -2t174.5 2q6 -31 6.5 -54.5t-4.5 -60.5l-73 -6q39 -145 129 -342t114 -254h9q55 106 116.5 277.5t90.5 318.5l-76 6q-4 33 -4 56.5t6 58.5q66 -2 163 -2t169 2q6 -35 6 -64.5t-4 -50.5l-72 -6q-281 -604 -332 -799q6 -156 17 -278 l73 -6q4 -33 4 -56.5t-6 -58.5q-72 2 -166 2t-164 -2q-6 31 -6 54.5t4 60.5l72 6q12 178 14 282q-53 176 -286 643q-66 127 -78 152l-76 6q-4 33 -4 56.5zM403 1522q43 23 103.5 53.5t91.5 46.5q90 49 150 94q61 -67 61 -143q0 -25 -2 -37q-252 -76 -373 -94q-27 35 -31 80z " />
<glyph unicode="&#xde;" horiz-adv-x="1069" d="M127 52.5q0 23.5 4 60.5l72 6q16 221 16 564t-18 513l-70 6q-4 33 -4 56.5t6 58.5q72 -2 166 -2t164 2q6 -31 6 -54.5t-4 -60.5l-78 -6q-4 -47 -8 -133q88 12 203 12q242 0 344 -101.5t102 -284.5t-103.5 -298t-314.5 -115q-82 0 -161 31q0 55 14.5 102.5t28.5 63.5 q59 -59 159.5 -59t149.5 83t49 187q0 274 -270 274q-90 0 -207 -49v-217q0 -358 18 -573l74 -6q4 -33 4 -56.5t-6 -58.5q-72 2 -166 2t-164 -2q-6 31 -6 54.5z" />
<glyph unicode="&#xdf;" horiz-adv-x="1099" d="M53.5 894.5q-0.5 35.5 3.5 51.5h125q6 123 39 216t115 156.5t223 63.5t243.5 -85t102.5 -226t-64.5 -223t-160.5 -113q369 -78 369 -381q0 -283 -193 -360q-59 -25 -155.5 -25t-180.5 61.5t-84 176.5v8q0 111 96 111q61 0 91 -38t30 -84t-14 -79q25 -27 80 -27 q152 0 151 256q0 193 -145 258q-59 27 -123.5 35t-71.5 10q-12 25 -12 61t4 52q213 43 213 268q0 96 -48 159t-128 63t-124 -28t-62 -81q-35 -90 -35 -225v-357q0 -371 39 -569h-119q-88 0 -158 -2q-6 31 -6 54.5t4 60.5l70 6q20 274 20 428l-6 289l-116 -2 q-12 25 -12.5 60.5z" />
<glyph unicode="&#xe0;" horiz-adv-x="968" d="M102 257q0 138 87 218t219.5 80t226.5 -49q2 23 2 74q0 152 -42 218t-128 66t-125 -33q16 -33 16 -82t-31.5 -84.5t-88.5 -35.5q-96 0 -96.5 113.5t85.5 175t242 61.5t241 -72.5t85 -199.5l-9 -295q0 -139 17 -273l76 -6q4 -33 4 -60.5t-6 -58.5q-59 -2 -232 -20 q-14 39 -22 96q-160 -121 -276 -121t-180.5 75t-64.5 213zM190 1235q2 57 20.5 91t61.5 71q94 -80 195.5 -146.5t140.5 -93.5q-10 -43 -41 -76q-254 104 -377 154zM262 285q0 -168 146 -168q53 0 113.5 27.5t94.5 68.5q11 123 11 164q-84 72 -181 72q-184 0 -184 -164z" />
<glyph unicode="&#xe1;" horiz-adv-x="968" d="M102 257q0 138 87 218t219.5 80t226.5 -49q2 23 2 74q0 152 -42 218t-128 66t-125 -33q16 -33 16 -82t-31.5 -84.5t-88.5 -35.5q-96 0 -96.5 113.5t85.5 175t242 61.5t241 -72.5t85 -199.5l-9 -295q0 -139 17 -273l76 -6q4 -33 4 -60.5t-6 -58.5q-59 -2 -232 -20 q-14 39 -22 96q-160 -121 -276 -121t-180.5 75t-64.5 213zM262 285q0 -168 146 -168q53 0 113.5 27.5t94.5 68.5q11 123 11 164q-84 72 -181 72q-184 0 -184 -164zM311 1157q39 27 98.5 66t86.5 59q84 57 151 115q43 -37 61.5 -71t20.5 -91q-123 -50 -377 -154 q-31 33 -41 76z" />
<glyph unicode="&#xe2;" horiz-adv-x="968" d="M102 257q0 138 87 218t219.5 80t226.5 -49q2 23 2 74q0 152 -42 218t-128 66t-125 -33q16 -33 16 -82t-31.5 -84.5t-88.5 -35.5q-96 0 -96.5 113.5t85.5 175t242 61.5t241 -72.5t85 -199.5l-9 -295q0 -139 17 -273l76 -6q4 -33 4 -60.5t-6 -58.5q-59 -2 -232 -20 q-14 39 -22 96q-160 -121 -276 -121t-180.5 75t-64.5 213zM186 1157q37 31 97 80q125 104 178 160q53 -55 145 -132t129 -108q-10 -43 -41 -76l-233 129q-68 -37 -234 -129q-33 37 -41 76zM262 285q0 -168 146 -168q53 0 113.5 27.5t94.5 68.5q11 123 11 164q-84 72 -181 72 q-184 0 -184 -164z" />
<glyph unicode="&#xe3;" horiz-adv-x="968" d="M102 257q0 138 87 218t219.5 80t226.5 -49q2 23 2 74q0 152 -42 218t-128 66t-125 -33q16 -33 16 -82t-31.5 -84.5t-88.5 -35.5q-96 0 -96.5 113.5t85.5 175t242 61.5t241 -72.5t85 -199.5l-9 -295q0 -139 17 -273l76 -6q4 -33 4 -60.5t-6 -58.5q-59 -2 -232 -20 q-14 39 -22 96q-160 -121 -276 -121t-180.5 75t-64.5 213zM168 1167q29 58 88 104t112.5 46t118 -34t99.5 -34q51 0 102 82q55 -25 70 -67q-29 -55 -88.5 -102.5t-113.5 -47.5t-118.5 34t-108.5 34t-96 -82q-51 25 -65 67zM262 285q0 -168 146 -168q53 0 113.5 27.5 t94.5 68.5q11 123 11 164q-84 72 -181 72q-184 0 -184 -164z" />
<glyph unicode="&#xe4;" horiz-adv-x="968" d="M102 257q0 138 87 218t219.5 80t226.5 -49q2 23 2 74q0 152 -42 218t-128 66t-125 -33q16 -33 16 -82t-31.5 -84.5t-88.5 -35.5q-96 0 -96.5 113.5t85.5 175t242 61.5t241 -72.5t85 -199.5l-9 -295q0 -139 17 -273l76 -6q4 -33 4 -60.5t-6 -58.5q-59 -2 -232 -20 q-14 39 -22 96q-160 -121 -276 -121t-180.5 75t-64.5 213zM203 1208q0 115 119 115q92 0 92 -96q0 -113 -119 -113q-92 0 -92 94zM262 285q0 -168 146 -168q53 0 113.5 27.5t94.5 68.5q11 123 11 164q-84 72 -181 72q-184 0 -184 -164zM510 1208q0 115 119 115q92 0 92 -96 q0 -113 -119 -113q-92 0 -92 94z" />
<glyph unicode="&#xe5;" horiz-adv-x="968" d="M102 257q0 138 87 218t219.5 80t226.5 -49q2 23 2 74q0 152 -42 218t-128 66t-125 -33q16 -33 16 -82t-31.5 -84.5t-88.5 -35.5q-96 0 -96.5 113.5t85.5 175t242 61.5t241 -72.5t85 -199.5l-9 -295q0 -139 17 -273l76 -6q4 -33 4 -60.5t-6 -58.5q-59 -2 -232 -20 q-14 39 -22 96q-160 -121 -276 -121t-180.5 75t-64.5 213zM262 285q0 -168 146 -168q53 0 113.5 27.5t94.5 68.5q11 123 11 164q-84 72 -181 72q-184 0 -184 -164zM307 1249q0 170 182 170q84 0 119 -40t35 -122.5t-44 -130t-138 -47.5q-154 0 -154 170zM387 1251 q0 -53 18.5 -74.5t59.5 -21.5q98 0 98 98q0 90 -78 90q-98 0 -98 -92z" />
<glyph unicode="&#xe6;" horiz-adv-x="1466" d="M102 265.5q0 142.5 93.5 216t220.5 73.5t219 -49q2 41 2 85t-1 72.5t-10.5 72.5t-27.5 67q-43 61 -130 61t-126 -33q16 -29 16 -77.5t-29.5 -86.5t-90.5 -38q-96 0 -97 110q0 240 344 240q180 0 260 -139q111 139 275 139t253 -91t89 -235q0 -72 -25 -149 q-154 -49 -305 -49t-229 10q0 -246 106 -315q49 -33 125 -33q123 0 254 127q59 -61 76 -162q-164 -115 -346 -115q-225 0 -313 168q-92 -90 -171 -128t-193 -38t-176.5 77t-62.5 219.5zM262 285q1 -168 146 -168q139 0 251 141q-8 35 -16 104q-96 86 -215 87q-74 0 -120 -40 t-46 -124zM805 584q86 -10 198.5 -10.5t176.5 20.5q8 74 8 76q0 80 -41 137t-129 57q-193 0 -213 -280z" />
<glyph unicode="&#xe7;" horiz-adv-x="880" d="M92 491.5q0 239.5 98.5 363.5t278.5 124q141 0 229 -66.5t88 -175t-96 -108.5q-57 0 -89 35.5t-32 88t15 78.5q-45 35 -107 35q-217 0 -217 -385q0 -176 55.5 -270t156.5 -94t251 127q59 -61 76 -162q-160 -106 -318 -113l4 -80q207 -8 207 -143q0 -176 -227 -176 q-92 0 -152 24q-2 6 -2 38t27 73q45 -41 130 -41t85 80q0 61 -92 61q-41 0 -99 -8l31 176q-156 20 -228.5 149.5t-72.5 369z" />
<glyph unicode="&#xe8;" horiz-adv-x="923" d="M92 481q0 252 103.5 375t293.5 123q141 0 233.5 -86t93.5 -211t-21 -178q-154 -49 -349 -49q-100 0 -186 10q4 -348 232 -348q115 0 253 127q59 -61 76 -162q-168 -113 -356.5 -113t-280.5 130t-92 382zM180 1235q2 57 20.5 91t61.5 71q94 -80 195.5 -146.5t140.5 -93.5 q-10 -43 -41 -76q-254 104 -377 154zM262 584q92 -10 202.5 -10.5t172.5 20.5q8 51 8 76q0 90 -46 142t-124 52q-190 0 -213 -280z" />
<glyph unicode="&#xe9;" horiz-adv-x="923" d="M92 481q0 252 103.5 375t293.5 123q141 0 233.5 -86t93.5 -211t-21 -178q-154 -49 -349 -49q-100 0 -186 10q4 -348 232 -348q115 0 253 127q59 -61 76 -162q-168 -113 -356.5 -113t-280.5 130t-92 382zM262 584q92 -10 202.5 -10.5t172.5 20.5q8 51 8 76q0 90 -46 142 t-124 52q-190 0 -213 -280zM305 1157q39 27 98.5 66t88.5 59q82 57 149 115q43 -37 61.5 -71t20.5 -91q-123 -50 -377 -154q-31 33 -41 76z" />
<glyph unicode="&#xea;" horiz-adv-x="923" d="M92 481q0 252 103.5 375t293.5 123q141 0 233.5 -86t93.5 -211t-21 -178q-154 -49 -349 -49q-100 0 -186 10q4 -348 232 -348q115 0 253 127q59 -61 76 -162q-168 -113 -356.5 -113t-280.5 130t-92 382zM209 1157q37 31 98 80q123 104 176 160q53 -55 145.5 -132 t129.5 -108q-10 -43 -41 -76l-234 129q-68 -37 -233 -129q-33 37 -41 76zM262 584q92 -10 202.5 -10.5t172.5 20.5q8 51 8 76q0 90 -46 142t-124 52q-190 0 -213 -280z" />
<glyph unicode="&#xeb;" horiz-adv-x="923" d="M92 481q0 252 103.5 375t293.5 123q141 0 233.5 -86t93.5 -211t-21 -178q-154 -49 -349 -49q-100 0 -186 10q4 -348 232 -348q115 0 253 127q59 -61 76 -162q-168 -113 -356.5 -113t-280.5 130t-92 382zM233 1225q0 115 119 114q92 0 92 -96q0 -113 -118 -113 q-92 0 -93 95zM262 584q92 -10 202.5 -10.5t172.5 20.5q8 51 8 76q0 90 -46 142t-124 52q-190 0 -213 -280zM541 1225q0 115 118 114q93 0 93 -96q0 -113 -119 -113q-92 0 -92 95z" />
<glyph unicode="&#xec;" horiz-adv-x="538" d="M29 1235q2 57 20.5 91t61.5 71q94 -80 195.5 -146.5t139.5 -93.5q-9 -43 -40 -76q-254 104 -377 154zM106.5 906.5q-0.5 31.5 2.5 47.5q119 4 253 19l11 -10q-18 -121 -18.5 -406t18.5 -438l76 -6q4 -33 4 -56.5t-7 -58.5q-72 2 -166 2t-163 -2q-6 31 -6 54.5t4 60.5 l71 6q18 201 18.5 367.5t-16.5 347.5l-75 6q-6 35 -6.5 66.5z" />
<glyph unicode="&#xed;" horiz-adv-x="538" d="M106.5 906.5q-0.5 31.5 2.5 47.5q119 4 253 19l11 -10q-18 -121 -18.5 -406t18.5 -438l76 -6q4 -33 4 -56.5t-7 -58.5q-72 2 -166 2t-163 -2q-6 31 -6 54.5t4 60.5l71 6q18 201 18.5 367.5t-16.5 347.5l-75 6q-6 35 -6.5 66.5zM131 1157q39 27 98.5 66t85.5 59 q84 57 152 115q43 -37 61.5 -71t20.5 -91q-123 -50 -377 -154q-31 33 -41 76z" />
<glyph unicode="&#xee;" horiz-adv-x="538" d="M4 1157q37 31 98 80q123 104 177 160q53 -55 145 -132t129 -108q-10 -43 -41 -76l-233 129q-68 -37 -234 -129q-33 37 -41 76zM106.5 906.5q-0.5 31.5 2.5 47.5q119 4 253 19l11 -10q-18 -121 -18.5 -406t18.5 -438l76 -6q4 -33 4 -56.5t-7 -58.5q-72 2 -166 2t-163 -2 q-6 31 -6 54.5t4 60.5l71 6q18 201 18.5 367.5t-16.5 347.5l-75 6q-6 35 -6.5 66.5z" />
<glyph unicode="&#xef;" horiz-adv-x="538" d="M18 1225q0 115 119 114q92 0 92 -96q0 -113 -118 -113q-92 0 -93 95zM106.5 906.5q-0.5 31.5 2.5 47.5q119 4 253 19l11 -10q-18 -121 -18.5 -406t18.5 -438l76 -6q4 -33 4 -56.5t-7 -58.5q-72 2 -166 2t-163 -2q-6 31 -6 54.5t4 60.5l71 6q18 201 18.5 367.5 t-16.5 347.5l-75 6q-6 35 -6.5 66.5zM326 1225q0 115 118 114q93 0 93 -96q0 -113 -119 -113q-92 0 -92 95z" />
<glyph unicode="&#xf0;" horiz-adv-x="995" d="M113 473q0 506 366 506q111 0 205 -88q-66 174 -174 274q-104 -61 -170 -104q-43 23 -43 88q59 31 133 74q-70 41 -178 82q0 70 27 102q145 -45 260 -123q131 74 180 111q41 -27 45 -92q-70 -35 -152 -80q271 -252 271 -719q0 -276 -93.5 -405.5t-292 -129.5t-291.5 125 t-93 379zM281 490.5q0 -373.5 217 -373.5t217 373.5t-217 373.5t-217 -373.5z" />
<glyph unicode="&#xf1;" horiz-adv-x="1091" d="M106.5 908.5q-0.5 33.5 2.5 45.5q104 2 253 19l11 -10q-4 -25 -13 -123q63 63 147.5 101t158.5 38q241 0 241 -262l-2 -199q0 -215 25 -399l71 -6q4 -45 4.5 -62.5t-6.5 -52.5q-57 2 -171.5 2t-163.5 -2q-6 31 -6.5 58.5t4.5 56.5l71 6q16 240 16.5 410.5t-33.5 244.5 t-116 74q-111 0 -244 -133q-2 -53 -2 -249t19 -347l76 -6q4 -45 4 -62.5t-7 -52.5q-57 2 -167.5 2t-161.5 -2q-6 31 -6 58.5t4 56.5l71 6q18 205 18.5 376t-16.5 339l-75 6q-6 35 -6.5 68.5zM250 1167q29 58 88 104t112.5 46t118 -34t99.5 -34q51 0 102 82q55 -25 70 -67 q-29 -55 -88.5 -102.5t-113.5 -47.5t-118.5 34t-108.5 34t-96 -82q-51 25 -65 67z" />
<glyph unicode="&#xf2;" horiz-adv-x="954" d="M92 485q0 494 385 494t385 -494q0 -227 -71 -360q-82 -156 -313.5 -156t-313.5 156q-72 133 -72 360zM207 1235q2 57 20.5 91t61.5 71q94 -80 195.5 -146.5t140.5 -93.5q-10 -43 -41 -76q-254 104 -377 154zM260 490.5q0 -373.5 217 -373.5t217 373.5t-217 373.5 t-217 -373.5z" />
<glyph unicode="&#xf3;" horiz-adv-x="954" d="M92 485q0 494 385 494t385 -494q0 -227 -71 -360q-82 -156 -313.5 -156t-313.5 156q-72 133 -72 360zM260 490.5q0 -373.5 217 -373.5t217 373.5t-217 373.5t-217 -373.5zM330 1157q39 27 98 66t88 59q82 57 150 115q43 -37 61 -71t21 -91q-123 -50 -377 -154 q-31 33 -41 76z" />
<glyph unicode="&#xf4;" horiz-adv-x="954" d="M92 485q0 494 385 494t385 -494q0 -227 -71 -360q-82 -156 -313.5 -156t-313.5 156q-72 133 -72 360zM203 1157q37 31 96 80q125 104 178 160q53 -55 145.5 -132t129.5 -108q-10 -43 -41 -76l-234 129q-68 -37 -233 -129q-33 37 -41 76zM260 490.5q0 -373.5 217 -373.5 t217 373.5t-217 373.5t-217 -373.5z" />
<glyph unicode="&#xf5;" horiz-adv-x="954" d="M92 485q0 494 385 494t385 -494q0 -227 -71 -360q-82 -156 -313.5 -156t-313.5 156q-72 133 -72 360zM182 1167q29 58 88.5 104t112.5 46t117.5 -34t99.5 -34q51 0 102 82q55 -25 70 -67q-29 -55 -88 -102.5t-113.5 -47.5t-119 34t-108.5 34t-95 -82q-51 25 -66 67z M260 490.5q0 -373.5 217 -373.5t217 373.5t-217 373.5t-217 -373.5z" />
<glyph unicode="&#xf6;" horiz-adv-x="954" d="M92 485q0 494 385 494t385 -494q0 -227 -71 -360q-82 -156 -313.5 -156t-313.5 156q-72 133 -72 360zM217 1225q0 115 119 114q92 0 92 -96q0 -113 -119 -113q-92 0 -92 95zM260 490.5q0 -373.5 217 -373.5t217 373.5t-217 373.5t-217 -373.5zM524 1225q0 115 119 114 q92 0 92 -96q0 -113 -119 -113q-92 0 -92 95z" />
<glyph unicode="&#xf7;" d="M178 657.5q0 53.5 15 98.5q141 -18 342 -19q410 0 512 29q6 -29 5.5 -82t-14.5 -98q-188 18 -365 18t-314.5 -9t-174.5 -20q-6 29 -6 82.5zM481 313q0 147 150 148q117 0 117 -123q0 -61 -37 -102t-113 -41q-117 0 -117 118zM481 999q0 147 150 148q117 0 117 -123 q0 -61 -37 -102t-113 -41q-117 0 -117 118z" />
<glyph unicode="&#xf8;" horiz-adv-x="954" d="M92 485q0 494 385 494q72 0 131 -18l47 147q25 4 62 4t80 -33q-27 -57 -76 -176q141 -119 141 -418q0 -227 -71 -360q-82 -156 -314 -156q-37 0 -94 8q-20 -61 -45 -139q-29 -4 -39 -4q-59 0 -100 33q20 51 65 153q-172 104 -172 465zM260 485q0 -215 70 -303 q115 291 237 660q-39 23 -90 22q-217 0 -217 -379zM430 121q14 -4 47 -4q217 0 217 368q0 162 -41 256q-117 -301 -223 -620z" />
<glyph unicode="&#xf9;" horiz-adv-x="1028" d="M72 907.5q0 34.5 2 46.5q104 2 254 19l10 -10q-18 -121 -19 -433v-96q0 -172 32 -244.5t108 -72.5q106 0 231 125q4 47 4 182v59q0 182 -16 351l-76 6q-6 35 -6 68.5t2 45.5q104 2 254 19l10 -10q-18 -121 -18 -433v-65q0 -168 18 -328l76 -4q4 -45 4 -66.5t-6 -52.5 q-80 -4 -223 -20q-16 37 -25 102q-154 -127 -283 -127t-183 71.5t-54 223.5l2 219q0 182 -16 351l-76 6q-6 33 -6 67.5zM236 1235q2 57 20 91t61 71q94 -80 195.5 -146.5t140.5 -93.5q-10 -43 -41 -76q-254 104 -376 154z" />
<glyph unicode="&#xfa;" horiz-adv-x="1028" d="M72 907.5q0 34.5 2 46.5q104 2 254 19l10 -10q-18 -121 -19 -433v-96q0 -172 32 -244.5t108 -72.5q106 0 231 125q4 47 4 182v59q0 182 -16 351l-76 6q-6 35 -6 68.5t2 45.5q104 2 254 19l10 -10q-18 -121 -18 -433v-65q0 -168 18 -328l76 -4q4 -45 4 -66.5t-6 -52.5 q-80 -4 -223 -20q-16 37 -25 102q-154 -127 -283 -127t-183 71.5t-54 223.5l2 219q0 182 -16 351l-76 6q-6 33 -6 67.5zM360 1157q39 27 98.5 66t86.5 59q84 57 151 115q43 -37 61.5 -71t20.5 -91q-123 -50 -377 -154q-31 33 -41 76z" />
<glyph unicode="&#xfb;" horiz-adv-x="1028" d="M72 907.5q0 34.5 2 46.5q104 2 254 19l10 -10q-18 -121 -19 -433v-96q0 -172 32 -244.5t108 -72.5q106 0 231 125q4 47 4 182v59q0 182 -16 351l-76 6q-6 35 -6 68.5t2 45.5q104 2 254 19l10 -10q-18 -121 -18 -433v-65q0 -168 18 -328l76 -4q4 -45 4 -66.5t-6 -52.5 q-80 -4 -223 -20q-16 37 -25 102q-154 -127 -283 -127t-183 71.5t-54 223.5l2 219q0 182 -16 351l-76 6q-6 33 -6 67.5zM233 1157q37 31 99 80q123 104 176 160q53 -55 145 -132t129 -108q-10 -43 -41 -76l-233 129q-68 -37 -234 -129q-33 37 -41 76z" />
<glyph unicode="&#xfc;" horiz-adv-x="1028" d="M72 907.5q0 34.5 2 46.5q104 2 254 19l10 -10q-18 -121 -19 -433v-96q0 -172 32 -244.5t108 -72.5q106 0 231 125q4 47 4 182v59q0 182 -16 351l-76 6q-6 35 -6 68.5t2 45.5q104 2 254 19l10 -10q-18 -121 -18 -433v-65q0 -168 18 -328l76 -4q4 -45 4 -66.5t-6 -52.5 q-80 -4 -223 -20q-16 37 -25 102q-154 -127 -283 -127t-183 71.5t-54 223.5l2 219q0 182 -16 351l-76 6q-6 33 -6 67.5zM248 1225q0 115 119 114q92 0 92 -96q0 -113 -119 -113q-92 0 -92 95zM555 1225q0 115 119 114q92 0 92 -96q0 -113 -119 -113q-92 0 -92 95z" />
<glyph unicode="&#xfd;" horiz-adv-x="899" d="M-35 -365q8 119 68 170q61 -84 149 -84q94 0 209 267q-104 367 -330 848l-67 6q-4 25 -4 56.5t6 57.5q59 -2 177 -2t179 2q6 -27 6 -58.5t-4 -55.5l-84 -6q39 -227 201 -609h8q102 332 148 609l-86 6q-4 20 -4 54t6 60q61 -2 170.5 -2t169.5 2q6 -27 6 -57.5t-4 -56.5 l-62 -6q-55 -150 -142 -412t-131 -385t-82 -199t-83 -143q-86 -127 -204 -127t-216 65zM346 1157q39 27 98.5 66t87.5 59q82 57 150 115q43 -37 61.5 -71t20.5 -91q-123 -50 -377 -154q-31 33 -41 76z" />
<glyph unicode="&#xfe;" horiz-adv-x="1011" d="M66 1326.5q0 35.5 2 51.5q186 10 266 19l8 -11q-29 -244 -29 -546q145 139 297 139q289 0 289 -492q0 -188 -76 -342q-39 -82 -120.5 -129t-183 -47t-208.5 49q10 -256 19 -327l76 -6l4 -54q0 -33 -7 -61q-57 2 -167.5 2t-161.5 -2q-6 37 -6 60.5t4 54.5l75 6 q16 207 17 671v394q0 369 -10 501l-82 7q-6 27 -6 62.5zM309 164q119 -47 193 -47q223 0 223 397q0 242 -78 305q-39 29 -98.5 29t-125 -39t-110.5 -94q-4 -170 -4 -551z" />
<glyph unicode="&#xff;" horiz-adv-x="899" d="M-35 -365q8 119 68 170q61 -84 149 -84q94 0 209 267q-104 367 -330 848l-67 6q-4 25 -4 56.5t6 57.5q59 -2 177 -2t179 2q6 -27 6 -58.5t-4 -55.5l-84 -6q39 -227 201 -609h8q102 332 148 609l-86 6q-4 20 -4 54t6 60q61 -2 170.5 -2t169.5 2q6 -27 6 -57.5t-4 -56.5 l-62 -6q-55 -150 -142 -412t-131 -385t-82 -199t-83 -143q-86 -127 -204 -127t-216 65zM236 1225q0 115 118 114q92 0 92 -96q0 -113 -118 -113q-92 0 -92 95zM543 1225q0 115 119 114q92 0 92 -96q0 -113 -119 -113q-92 0 -92 95z" />
<glyph unicode="&#x152;" horiz-adv-x="1650" d="M113 670q0 672 501 671q84 0 162 -22q166 -10 371 -10t371 18l10 -10q-14 -158 -19 -291q-25 -2 -52 -2t-62 6l-6 139q-123 6 -227.5 6.5t-176.5 -6.5q-12 -117 -12 -421q43 -2 155.5 -2.5t208.5 10.5l6 75q33 4 57.5 4.5t57.5 -6.5q-2 -72 -2 -165t2 -129 q-31 -6 -54.5 -6.5t-60.5 3.5l-6 72q-78 4 -168 4t-196 -4q0 -268 14 -448q63 -6 205.5 -6t206.5 10l6 139q33 6 61.5 6t53.5 -2q6 -156 18 -303l-10 -10q-162 10 -504 10l-215 -2q-86 -29 -204 -29t-211 39t-146 100.5t-85 157.5t-41 188.5t-9 215.5zM274 668 q0 -396 168 -502q70 -45 180.5 -45t188.5 61q8 238 8 461t-26 520q-76 57 -179 58q-176 0 -258 -149.5t-82 -403.5z" />
<glyph unicode="&#x153;" horiz-adv-x="1523" d="M92 485q0 494 385 494q217 0 309 -166q104 166 304 166q160 0 244.5 -94t84.5 -234q0 -74 -24 -147q-154 -49 -305.5 -49t-227.5 10q0 -252 109 -318q49 -31 121 -30q117 0 254 127q59 -61 75 -162q-170 -115 -346 -115q-209 0 -299 164q-90 -162 -299 -162 q-231 0 -313 156q-72 133 -72 360zM260 490.5q0 -373.5 217 -373.5t217 373.5t-217 373.5t-217 -373.5zM862 584q88 -10 200 -10.5t175 20.5q6 37 6 74q0 84 -40 140t-128 56q-190 0 -213 -280z" />
<glyph unicode="&#x178;" horiz-adv-x="1013" d="M2 1258.5q0 23.5 6 58.5q72 -2 177.5 -2t174.5 2q6 -31 6.5 -54.5t-4.5 -60.5l-73 -6q39 -145 129 -342t114 -254h9q55 106 116.5 277.5t90.5 318.5l-76 6q-4 33 -4 56.5t6 58.5q66 -2 163 -2t169 2q6 -35 6 -64.5t-4 -50.5l-72 -6q-281 -604 -332 -799q6 -156 17 -278 l73 -6q4 -33 4 -56.5t-6 -58.5q-72 2 -166 2t-164 -2q-6 31 -6 54.5t4 60.5l72 6q12 178 14 282q-53 176 -286 643q-66 127 -78 152l-76 6q-4 33 -4 56.5zM264 1536q0 115 119 115q92 -1 92 -97q0 -113 -119 -112q-92 0 -92 94zM571 1536q0 115 119 115q92 -1 92 -97 q0 -113 -118 -112q-92 0 -93 94z" />
<glyph unicode="&#x2c6;" horiz-adv-x="999" d="M225 1157q37 31 99 80q123 104 176 160q53 -55 145 -132t129 -108q-10 -43 -41 -76l-233 129q-68 -37 -234 -129q-33 37 -41 76z" />
<glyph unicode="&#x2dc;" horiz-adv-x="1040" d="M225 1167q29 58 88.5 104t112.5 46t117.5 -34t99.5 -34q51 0 102 82q55 -25 70 -67q-29 -55 -88 -102.5t-113.5 -47.5t-119 34t-108.5 34t-95 -82q-51 25 -66 67z" />
<glyph unicode="&#x2000;" horiz-adv-x="880" />
<glyph unicode="&#x2001;" horiz-adv-x="1761" />
<glyph unicode="&#x2002;" horiz-adv-x="880" />
<glyph unicode="&#x2003;" horiz-adv-x="1761" />
<glyph unicode="&#x2004;" horiz-adv-x="587" />
<glyph unicode="&#x2005;" horiz-adv-x="440" />
<glyph unicode="&#x2006;" horiz-adv-x="293" />
<glyph unicode="&#x2007;" horiz-adv-x="293" />
<glyph unicode="&#x2008;" horiz-adv-x="220" />
<glyph unicode="&#x2009;" horiz-adv-x="352" />
<glyph unicode="&#x200a;" horiz-adv-x="97" />
<glyph unicode="&#x2010;" horiz-adv-x="724" d="M123 465q0 35 12 84q387 27 455 43q12 -29 12 -63.5t-12 -84.5q-387 -27 -455 -43q-12 29 -12 64z" />
<glyph unicode="&#x2011;" horiz-adv-x="724" d="M123 465q0 35 12 84q387 27 455 43q12 -29 12 -63.5t-12 -84.5q-387 -27 -455 -43q-12 29 -12 64z" />
<glyph unicode="&#x2012;" horiz-adv-x="724" d="M123 465q0 35 12 84q387 27 455 43q12 -29 12 -63.5t-12 -84.5q-387 -27 -455 -43q-12 29 -12 64z" />
<glyph unicode="&#x2013;" horiz-adv-x="1028" d="M41 508q0 49 16 102q152 -18 359 -18t366.5 9t196.5 20q8 -37 8 -82.5t-16 -98.5q-201 18 -405 18.5t-341 -10t-176 -18.5q-8 29 -8 78z" />
<glyph unicode="&#x2014;" horiz-adv-x="1497" d="M41 509q0 50 29 101q252 -18 573 -18q623 0 801 29q12 -37 12 -83.5t-29 -97.5q-336 18 -610 18.5t-485 -10t-279 -18.5q-12 29 -12 79z" />
<glyph unicode="&#x2018;" horiz-adv-x="534" d="M123 1014q0 164 65.5 273.5t212.5 109.5q10 -31 10.5 -50.5t-5.5 -50.5q-137 0 -138 -141q0 -51 54 -57q78 -6 77 -101q0 -72 -33.5 -109.5t-121.5 -37.5q-121 0 -121 164z" />
<glyph unicode="&#x2019;" horiz-adv-x="534" d="M123 900.5q0 19.5 6 49.5q137 0 137 142q0 51 -53 57q-78 6 -78 100q0 72 34 110t122 38q121 0 121 -164t-66 -273.5t-213 -109.5q-10 31 -10 50.5z" />
<glyph unicode="&#x201a;" horiz-adv-x="575" d="M164 -261q0 19 6 50q137 0 137 141q0 51 -53 58q-78 6 -78 100q0 72 34 110t122 38q121 0 121 -164t-66 -273.5t-213 -109.5q-10 31 -10 50z" />
<glyph unicode="&#x201c;" horiz-adv-x="905" d="M123 1014q0 164 65.5 273.5t212.5 109.5q10 -31 10.5 -50.5t-5.5 -50.5q-137 0 -138 -141q0 -51 54 -57q78 -6 77 -101q0 -72 -33.5 -109.5t-121.5 -37.5q-121 0 -121 164zM493.5 1014q0.5 164 66 273.5t212.5 109.5q10 -31 10 -50.5t-6 -50.5q-137 0 -137 -141 q0 -51 53 -57q78 -6 78 -101q0 -72 -34 -109.5t-122 -37.5q-121 0 -120.5 164z" />
<glyph unicode="&#x201d;" horiz-adv-x="905" d="M123 900.5q0 19.5 6 49.5q137 0 137 142q0 51 -53 57q-78 6 -78 100q0 72 34 110t122 38q121 0 121 -164t-66 -273.5t-213 -109.5q-10 31 -10 50.5zM494 900.5q0 19.5 6 49.5q137 0 137 142q0 51 -53 57q-78 6 -78 100q0 72 33.5 110t122.5 38q121 0 120.5 -164 t-66 -273.5t-212.5 -109.5q-10 31 -10 50.5z" />
<glyph unicode="&#x201e;" horiz-adv-x="946" d="M164 -261q0 19 6 50q137 0 137 141q0 51 -53 58q-78 6 -78 100q0 72 34 110t122 38q121 0 121 -164t-66 -273.5t-213 -109.5q-10 31 -10 50zM535 -261q0 19 6 50q137 0 137 141q0 51 -53 58q-78 6 -78 100q0 72 33.5 110t121.5 38q121 0 121 -164t-65.5 -273.5 t-212.5 -109.5q-10 31 -10 50z" />
<glyph unicode="&#x2022;" horiz-adv-x="618" d="M123 651q0 207 209 207q164 0 164 -172q0 -88 -51.5 -144.5t-157.5 -56.5q-164 0 -164 166z" />
<glyph unicode="&#x2026;" horiz-adv-x="1658" d="M184 88q0 147 150 148q117 0 117 -123q0 -61 -37 -102.5t-113 -41.5q-117 0 -117 119zM737 88q0 147 150 148q117 0 117 -123q0 -61 -37 -102.5t-113 -41.5q-117 0 -117 119zM1290 88q0 147 150 148q116 0 116 -123q0 -61 -36.5 -102.5t-112.5 -41.5q-117 0 -117 119z " />
<glyph unicode="&#x202f;" horiz-adv-x="352" />
<glyph unicode="&#x2039;" horiz-adv-x="610" d="M61 573q90 86 133.5 139.5t90.5 111t84 102.5q57 -17 98 -54q-162 -291 -166 -299q68 -127 166 -299q-47 -43 -98 -53q-37 45 -84 102.5t-72 90.5q-61 74 -152 159z" />
<glyph unicode="&#x203a;" horiz-adv-x="610" d="M143 274q98 172 166 299q-4 8 -166 299q41 37 99 54q37 -45 84 -102.5t71 -90.5q61 -74 152 -160q-90 -86 -133 -139t-90 -110.5t-84 -102.5q-51 10 -99 53z" />
<glyph unicode="&#x205f;" horiz-adv-x="440" />
<glyph unicode="&#x20ac;" horiz-adv-x="1208" d="M41 462q0 42 8 73q117 -6 119 -7q-4 45 -4 166h-107q-16 33 -16 61.5t6 53.5h123q49 532 502 532q143 0 238.5 -59t133.5 -158q12 -37 13 -80q0 -123 -107 -122q-68 0 -100.5 42t-32.5 101t27 94q-66 61 -180 62q-281 0 -326 -412q229 4 391 16q14 -29 14 -70.5t-8 -72.5 q-199 8 -403 12q0 -100 6 -170q129 -2 389 -2q16 -33 16 -61.5t-6 -52.5q-258 0 -381 -2q66 -285 316 -285q80 0 166 39t145 106q63 -51 82 -162q-182 -135 -403.5 -135t-335 113t-146.5 317l-125 -8q-14 29 -14 71z" />
<glyph unicode="&#x2122;" horiz-adv-x="1394" d="M84 1450l6 6q82 -12 248 -12t203 12l6 -6q-10 -94 -12 -182q-45 0 -72 4l-4 84l-82 6q-4 -72 -4 -232.5t12 -277.5l72 -8q2 -12 2 -25.5t-4 -42.5h-258q-4 14 -4 36t2 32l69 8q10 115 10 279.5t-6 230.5l-98 -10l-4 -92q-20 -4 -70 -5zM561 811q0 23 2 33l70 8 q8 106 8 274t-8 246l-51 4q-4 17 -4 35l2 37q121 6 155 10q23 -115 193 -428q131 264 168 428l26 -4l150 -6q2 -10 2 -30.5t-4 -41.5l-56 -4q-6 -84 -6 -240.5t11 -279.5l71 -8q2 -10 2 -22.5t-4 -45.5h-254q-4 12 -4 35t2 33l70 8q8 123 8 278v84q-39 -63 -145 -315 q-29 -8 -47.5 -8t-45.5 4q-41 94 -147 295v-57q0 -188 10 -281l72 -8q2 -10 2 -26.5t-4 -41.5h-240q-4 12 -4 35z" />
<glyph unicode="&#xe000;" horiz-adv-x="952" d="M0 0v952h952v-952h-952z" />
<glyph unicode="&#xfb01;" horiz-adv-x="1105" d="M70 898.5q0 31.5 4 47.5h119q-2 27 -3 82q0 354 265 354q109 0 190 -63q0 -117 -67 -170q-53 111 -132 111q-106 0 -106 -244q0 -47 2 -70q377 0 588 27l10 -10q-18 -119 -18 -405t18 -439l76 -6q4 -33 4 -56.5t-6 -58.5q-72 2 -166 2t-164 -2q-6 31 -6 54.5t4 60.5l72 6 q18 201 18 365.5t-16 344.5q-203 6 -404 7v-195l2 -156q0 -211 21 -366l74 -6q4 -33 4 -56.5t-7 -58.5q-72 2 -166 2t-163 -2q-6 31 -6 54.5t4 60.5l71 6q18 221 19 307l-6 410q-82 0 -117 -2q-12 33 -12 64.5zM725 1233q0 129 131 129q102 -1 102 -107q0 -127 -131 -127 q-102 0 -102 105z" />
<glyph unicode="&#xfb02;" horiz-adv-x="1064" d="M53.5 898.5q-0.5 31.5 3.5 47.5h119q-2 27 -2 82q0 186 83 269t243 83q96 0 229 -28q63 43 150 43q37 0 57 -2q-31 -252 -31 -652v-217q0 -252 19 -405l75 -6q4 -33 4.5 -56.5t-6.5 -58.5q-72 2 -166 2t-163 -2q-6 31 -6 54.5t4 60.5l71 6q18 193 19 356v176 q0 414 -15 539q-186 72 -262 72t-115.5 -55.5t-39.5 -190.5q0 -45 2 -68q172 4 256 13q12 -27 12 -59t-8 -77q-78 4 -250 9v-193l2 -156q0 -211 20 -366l74 -6q4 -33 4 -56.5t-6 -58.5q-72 2 -166 2t-164 -2q-6 31 -6 54.5t4 60.5l70 6q20 196 20 307l-6 410q-82 0 -116 -2 q-12 33 -12.5 64.5z" />
</font>
</defs>
</svg>
